<svg width="194" height="194" viewBox="0 0 194 194" fill="none" xmlns="http://www.w3.org/2000/svg">
<path d="M152.845 0H40.2223C18.0081 0 0 18.0081 0 40.2223V152.845C0 175.059 18.0081 193.067 40.2223 193.067H152.845C175.059 193.067 193.067 175.059 193.067 152.845V40.2223C193.067 18.0081 175.059 0 152.845 0Z" fill="#3F16E4"/>
<path d="M47.0231 102.4L60.3522 114.615L107.151 60.9115L93.8217 48.6967L47.0231 102.4Z" fill="#FFFEFE"/>
<path fill-rule="evenodd" clip-rule="evenodd" d="M34.0037 117.497L44.1061 105.795L60.3985 120.592L64.7456 115.701L64.7455 115.701H64.7457L83.1695 116.164L74.7153 125.692L60.7149 141.758L60.4073 141.476L34.0037 117.497Z" fill="#FFFEFE"/>
<path d="M147.029 90.4922L133.7 78.2773L86.9013 131.98L100.23 144.195L147.029 90.4922Z" fill="#FFFEFE"/>
<path fill-rule="evenodd" clip-rule="evenodd" d="M129.307 77.1908L110.883 76.7278L119.326 67.2114L133.337 51.1333L133.772 51.532L160.047 75.395L149.945 87.0971L133.653 72.3011L129.307 77.1908L129.307 77.1908Z" fill="#FFFEFE"/>
</svg>
