<svg width="198" height="49" viewBox="0 0 198 49" fill="none" xmlns="http://www.w3.org/2000/svg">
<g clip-path="url(#clip0_432_39550)">
<path d="M25.2206 21.6177L31.7059 7.20589L44.1085 19.6085C45.8207 21.3207 46.6768 22.1768 46.9975 23.164C47.2797 24.0323 47.2797 24.9677 46.9975 25.8361C46.6768 26.8232 45.8207 27.6793 44.1085 29.3915L31.7059 41.7941H21.6176L38.5539 23.5551C39.1222 22.9431 39.4063 22.6371 39.4201 22.3761C39.432 22.1496 39.3365 21.9306 39.1623 21.7851C38.9618 21.6177 38.5442 21.6177 37.709 21.6177H25.2206Z" fill="#B8D9FF"/>
<path d="M23.7794 27.3824L17.2941 41.7941L4.89152 29.3915C3.17932 27.6793 2.32323 26.8232 2.00247 25.836C1.72033 24.9677 1.72033 24.0323 2.00247 23.164C2.32323 22.1768 3.17932 21.3207 4.89152 19.6085L17.2941 7.20589H27.3824L10.4461 25.4449C9.87783 26.0569 9.59368 26.3629 9.57993 26.6239C9.56799 26.8505 9.66348 27.0694 9.83765 27.2149C10.0382 27.3824 10.4558 27.3824 11.291 27.3824H23.7794Z" fill="#B8D9FF"/>
<path d="M186.5 36.9633V16.7436H180.699V12.103H197.273V16.7436H191.472V36.9633H186.5Z" fill="#B8D9FF"/>
<path d="M162.725 36.9301V12.0699H176.978V16.7104H167.697V21.8814H175.553V26.522H167.697V32.2896H177.044V36.9301H162.725Z" fill="#B8D9FF"/>
<path d="M140.813 36.9301V12.0699H145.785V22.1466H152.978V12.0699H157.95V36.9301H152.978V26.7871H145.785V36.9301H140.813Z" fill="#B8D9FF"/>
<path d="M127.675 37.2616C122.636 37.2616 119.09 34.0795 119.09 28.7428V20.1246C119.09 14.8542 122.669 11.7384 127.675 11.7384C132.68 11.7384 136.26 14.8542 136.26 20.1246V21.7819H131.288V20.2572C131.288 17.9037 129.829 16.379 127.675 16.379C125.52 16.379 124.062 17.9037 124.062 20.2572V28.7428C124.062 31.0963 125.52 32.621 127.675 32.621C129.829 32.621 131.288 31.0963 131.288 28.7428V26.8203H136.26V28.7428C136.26 34.0795 132.713 37.2616 127.675 37.2616Z" fill="#B8D9FF"/>
<path d="M105.132 36.9633V16.7436H99.3313V12.103H115.905V16.7436H110.104V36.9633H105.132Z" fill="#B8D9FF"/>
<path d="M79.9395 36.9301L86.1048 12.0699H92.5022L98.6675 36.9301H92.8005L92.1376 33.5823H86.1048L85.4419 36.9301H79.9395ZM86.9003 29.6046H91.3752L89.1543 18.3346L86.9003 29.6046Z" fill="#B8D9FF"/>
<path d="M59.0881 36.9301V12.0699H64.0602V22.1466H71.2531V12.0699H76.2252V36.9301H71.2531V26.7871H64.0602V36.9301H59.0881Z" fill="#B8D9FF"/>
</g>
<defs>
<clipPath id="clip0_432_39550">
<rect width="198" height="49" fill="white"/>
</clipPath>
</defs>
</svg>
