<svg width="402" height="85" viewBox="0 0 402 85" fill="none" xmlns="http://www.w3.org/2000/svg">
<path d="M0 82.7131V2.55814L15.8817 0V26.8604C16.9476 26.5052 18.2981 26.1854 19.9321 25.9011C21.6376 25.5459 23.2716 25.3682 24.8352 25.3682C29.3834 25.3682 33.1492 26.0077 36.1337 27.2868C39.1896 28.4948 41.6049 30.2358 43.3817 32.5097C45.2289 34.7835 46.508 37.4838 47.2189 40.6104C48.0002 43.737 48.3914 47.2189 48.3914 51.0562V82.7131H32.5096V52.9748C32.5096 47.8585 31.8349 44.2345 30.4844 42.1027C29.2054 39.9709 26.789 38.905 23.2364 38.905C21.8156 38.905 20.4651 39.0471 19.186 39.3314C17.9783 39.5445 16.8762 39.7932 15.8817 40.0775V82.7131H0ZM87.3889 71.6278C88.9526 71.6278 90.4448 71.5927 91.8657 71.5213C93.2865 71.4499 94.4238 71.3433 95.2765 71.2015V59.1569C94.637 59.0151 93.6777 58.8724 92.3986 58.7306C91.1196 58.5888 89.9471 58.5174 88.8812 58.5174C87.3889 58.5174 85.9681 58.624 84.6176 58.8372C83.3386 58.9789 82.2013 59.2987 81.2068 59.7965C80.2123 60.2942 79.43 60.9689 78.8618 61.8216C78.2937 62.6744 78.0091 63.7403 78.0091 65.0193C78.0091 67.5061 78.8266 69.2477 80.4606 70.2422C82.1661 71.1663 84.4758 71.6278 87.3889 71.6278ZM86.1098 25.155C90.7998 25.155 94.7084 25.688 97.8346 26.7539C100.961 27.8197 103.449 29.3475 105.296 31.3372C107.214 33.3269 108.565 35.7428 109.346 38.5852C110.128 41.4276 110.519 44.5897 110.519 48.0717V81.1143C108.245 81.612 105.083 82.1802 101.032 82.8197C96.982 83.5306 92.0788 83.8856 86.323 83.8856C82.699 83.8856 79.3947 83.5658 76.4102 82.9263C73.4971 82.2868 70.9742 81.256 68.8424 79.8352C66.7106 78.343 65.0766 76.4243 63.9394 74.0794C62.8021 71.7344 62.2339 68.8565 62.2339 65.4457C62.2339 62.1766 62.8734 59.4053 64.1525 57.1317C65.503 54.8582 67.2788 53.0462 69.482 51.6957C71.6851 50.3452 74.2071 49.3859 77.0498 48.8178C79.8925 48.1782 82.8408 47.8585 85.8967 47.8585C87.9571 47.8585 89.7691 47.9651 91.3327 48.1782C92.9667 48.32 94.282 48.5332 95.2765 48.8178V47.3255C95.2765 44.6253 94.459 42.4579 92.825 40.8236C91.1909 39.1893 88.3482 38.3721 84.2979 38.3721C81.5979 38.3721 78.9332 38.5852 76.3037 39.0116C73.6741 39.3669 71.4006 39.8998 69.482 40.6104L67.4568 27.8197C68.3809 27.5355 69.5172 27.2513 70.8676 26.967C72.2885 26.6118 73.8169 26.3275 75.451 26.1143C77.085 25.83 78.7904 25.6169 80.5672 25.4748C82.4144 25.2616 84.2626 25.155 86.1098 25.155ZM127.545 12.6841L143.427 10.126V26.6473H162.506V39.8643H143.427V59.5833C143.427 62.9227 143.995 65.5875 145.132 67.5775C146.34 69.5675 148.72 70.562 152.273 70.562C153.979 70.562 155.72 70.4202 157.496 70.1356C159.344 69.7806 161.014 69.3181 162.506 68.7499L164.744 81.1143C162.826 81.8956 160.694 82.5713 158.349 83.1395C156.004 83.7076 153.126 83.9922 149.715 83.9922C145.38 83.9922 141.792 83.424 138.95 82.2867C136.107 81.0791 133.834 79.444 132.128 77.3836C130.423 75.2519 129.214 72.6937 128.504 69.7092C127.865 66.7248 127.545 63.4205 127.545 59.7965V12.6841ZM173.89 54.6802C173.89 50.6298 174.529 46.8281 175.809 43.2752C177.159 39.6511 179.078 36.5246 181.564 33.8953C184.051 31.1951 187.072 29.0633 190.624 27.5C194.177 25.9366 198.227 25.155 202.776 25.155C205.76 25.155 208.496 25.4393 210.983 26.0077C213.47 26.5052 215.886 27.2513 218.231 28.2461L214.927 40.9302C213.434 40.3618 211.8 39.8643 210.024 39.4379C208.247 39.0116 206.258 38.7984 204.055 38.7984C199.365 38.7984 195.847 40.2552 193.502 43.1686C191.229 46.082 190.091 49.9189 190.091 54.6802C190.091 59.7251 191.157 63.6337 193.289 66.405C195.492 69.1763 199.293 70.562 204.694 70.562C206.613 70.562 208.673 70.384 210.876 70.029C213.08 69.674 215.105 69.1049 216.952 68.3236L219.19 81.3274C217.343 82.1088 215.033 82.7845 212.262 83.3526C209.491 83.9208 206.435 84.2053 203.095 84.2053C197.979 84.2053 193.574 83.4592 189.878 81.967C186.183 80.4033 183.128 78.3077 180.712 75.6782C178.367 73.0487 176.626 69.9576 175.489 66.405C174.423 62.7809 173.89 58.8724 173.89 54.6802ZM233.047 82.7131V2.55814L248.929 0V26.8604C249.995 26.5052 251.345 26.1854 252.979 25.9011C254.684 25.5459 256.318 25.3682 257.882 25.3682C262.43 25.3682 266.196 26.0077 269.181 27.2868C272.236 28.4948 274.652 30.2358 276.429 32.5097C278.276 34.7835 279.555 37.4838 280.266 40.6104C281.047 43.737 281.438 47.2189 281.438 51.0562V82.7131H265.557V52.9748C265.557 47.8585 264.882 44.2345 263.531 42.1027C262.252 39.9709 259.836 38.905 256.283 38.905C254.862 38.905 253.512 39.0471 252.233 39.3314C251.025 39.5445 249.923 39.7932 248.929 40.0775V82.7131H233.047ZM296.347 55.1065C296.347 50.132 297.093 45.7978 298.585 42.1027C300.149 38.3366 302.174 35.2099 304.661 32.7228C307.147 30.2358 309.99 28.3527 313.188 27.0736C316.457 25.7945 319.796 25.155 323.207 25.155C331.166 25.155 337.455 27.6066 342.073 32.5097C346.692 37.3417 349.002 44.4831 349.002 53.9341C349.002 54.8582 348.967 55.8879 348.895 57.0251C348.824 58.091 348.753 59.0503 348.682 59.903H312.655C313.01 63.1721 314.538 65.7654 317.238 67.684C319.938 69.6026 323.562 70.562 328.11 70.562C331.023 70.562 333.866 70.3136 336.637 69.8158C339.48 69.2477 341.789 68.572 343.566 67.7906L345.697 80.6879C344.845 81.1143 343.707 81.5406 342.287 81.967C340.866 82.3933 339.267 82.7483 337.49 83.0329C335.785 83.3878 333.937 83.6724 331.947 83.8856C329.957 84.0988 327.968 84.2053 325.978 84.2053C320.934 84.2053 316.527 83.4592 312.761 81.967C309.066 80.4747 305.975 78.4495 303.488 75.8914C301.072 73.2619 299.26 70.1708 298.052 66.6182C296.915 63.0655 296.347 59.2283 296.347 55.1065ZM333.653 49.031C333.581 47.6805 333.333 46.3662 332.907 45.0872C332.552 43.8081 331.947 42.6711 331.095 41.6763C330.313 40.6815 329.283 39.8643 328.004 39.2248C326.796 38.5852 325.267 38.2655 323.42 38.2655C321.643 38.2655 320.116 38.5852 318.837 39.2248C317.558 39.7932 316.492 40.5749 315.639 41.5697C314.787 42.5645 314.112 43.737 313.614 45.0872C313.188 46.3662 312.868 47.6805 312.655 49.031H333.653ZM363.922 12.6841L379.804 10.126V26.6473H398.883V39.8643H379.804V59.5833C379.804 62.9227 380.373 65.5875 381.509 67.5775C382.718 69.5675 385.098 70.562 388.651 70.562C390.356 70.562 392.098 70.4202 393.874 70.1356C395.722 69.7806 397.391 69.3181 398.883 68.7499L401.122 81.1143C399.203 81.8956 397.071 82.5713 394.726 83.1395C392.381 83.7076 389.504 83.9922 386.093 83.9922C381.759 83.9922 378.17 83.424 375.327 82.2867C372.485 81.0791 370.211 79.444 368.505 77.3836C366.8 75.2519 365.592 72.6937 364.881 69.7092C364.242 66.7248 363.922 63.4205 363.922 59.7965V12.6841Z" fill="#0C0C0C"/>
</svg>
