<svg width="100" height="100" viewBox="0 0 100 100" fill="none" xmlns="http://www.w3.org/2000/svg">
  <style>
    path {
      fill: #03071A;
      color: #03071A;
    }
    @media (prefers-color-scheme: dark) {
      path {
        fill: #B8D9FF;
        color: #B8D9FF;
      }
    }
  </style>
  <path d="M51.5 45L65 15L90.8177 40.8177C94.3818 44.3818 96.1639 46.1639 96.8316 48.2188C97.4189 50.0264 97.4189 51.9736 96.8316 53.7812C96.1639 55.8361 94.3818 57.6182 90.8177 61.1823L65 87H44L79.255 49.0331C80.438 47.7591 81.0295 47.1221 81.0581 46.5789C81.083 46.1072 80.8842 45.6514 80.5216 45.3486C80.1041 45 79.2348 45 77.4963 45H51.5Z" fill="currentColor"/>
  <path d="M48.5 57L35 87L9.18233 61.1823C5.61818 57.6182 3.83611 55.8361 3.16841 53.7812C2.58109 51.9736 2.58109 50.0264 3.16841 48.2188C3.83611 46.1639 5.61819 44.3818 9.18234 40.8177L35 15H56L20.745 52.9669C19.562 54.2409 18.9705 54.8779 18.9419 55.4211C18.917 55.8928 19.1158 56.3486 19.4784 56.6514C19.8959 57 20.7652 57 22.5037 57H48.5Z" fill="currentColor" fill-opacity="0.7"/>
</svg>
