<svg width="128" height="128" viewBox="0 0 128 128" fill="none" xmlns="http://www.w3.org/2000/svg">
<path d="M18.25 112H19.75V114.25H18.25V112ZM27.25 112H28.75V114.25H27.25V112ZM36.25 112H37.75V114.25H36.25V112ZM45.25 112H46.75V114.25H45.25V112ZM54.25 112H55.75V114.25H54.25V112ZM63.25 112H64.75V114.25H63.25V112ZM72.25 112H73.75V114.25H72.25V112ZM81.25 112H82.75V114.25H81.25V112ZM90.25 112H91.75V114.25H90.25V112ZM99.25 112H100.75V114.25H99.25V112ZM108.25 112H109.75V114.25H108.25V112ZM16 108.25V109.75H13.75V108.25H16ZM25 108.25V109.75H22V108.25H25ZM34 108.25V109.75H31V108.25H34ZM43 108.25V109.75H40V108.25H43ZM52 108.25V109.75H49V108.25H52ZM61 108.25V109.75H58V108.25H61ZM70 108.25V109.75H67V108.25H70ZM79 108.25V109.75H76V108.25H79ZM88 108.25V109.75H85V108.25H88ZM97 108.25V109.75H94V108.25H97ZM106 108.25V109.75H103V108.25H106ZM114.25 108.25V109.75H112V108.25H114.25ZM18.25 103H19.75V106H18.25V103ZM27.25 103H28.75V106H27.25V103ZM36.25 103H37.75V106H36.25V103ZM45.25 103H46.75V106H45.25V103ZM54.25 103H55.75V106H54.25V103ZM63.25 103H64.75V106H63.25V103ZM72.25 103H73.75V106H72.25V103ZM81.25 103H82.75V106H81.25V103ZM90.25 103H91.75V106H90.25V103ZM99.25 103H100.75V106H99.25V103ZM108.25 103H109.75V106H108.25V103ZM16 99.25V100.75H13.75V99.25H16ZM25 99.25V100.75H22V99.25H25ZM34 99.25V100.75H31V99.25H34ZM43 99.25V100.75H40V99.25H43ZM52 99.25V100.75H49V99.25H52ZM61 99.25V100.75H58V99.25H61ZM70 99.25V100.75H67V99.25H70ZM79 99.25V100.75H76V99.25H79ZM88 99.25V100.75H85V99.25H88ZM97 99.25V100.75H94V99.25H97ZM106 99.25V100.75H103V99.25H106ZM114.25 99.25V100.75H112V99.25H114.25ZM18.25 94H19.75V97H18.25V94ZM27.25 94H28.75V97H27.25V94ZM36.25 94H37.75V97H36.25V94ZM45.25 94H46.75V97H45.25V94ZM54.25 94H55.75V97H54.25V94ZM63.25 94H64.75V97H63.25V94ZM72.25 94H73.75V97H72.25V94ZM81.25 94H82.75V97H81.25V94ZM90.25 94H91.75V97H90.25V94ZM99.25 94H100.75V97H99.25V94ZM108.25 94H109.75V97H108.25V94ZM16 90.25V91.75H13.75V90.25H16ZM25 90.25V91.75H22V90.25H25ZM34 90.25V91.75H31V90.25H34ZM43 90.25V91.75H40V90.25H43ZM52 90.25V91.75H49V90.25H52ZM61 90.25V91.75H58V90.25H61ZM70 90.25V91.75H67V90.25H70ZM79 90.25V91.75H76V90.25H79ZM88 90.25V91.75H85V90.25H88ZM97 90.25V91.75H94V90.25H97ZM106 90.25V91.75H103V90.25H106ZM114.25 90.25V91.75H112V90.25H114.25ZM18.25 85H19.75V88H18.25V85ZM27.25 85H28.75V88H27.25V85ZM36.25 85H37.75V88H36.25V85ZM45.25 85H46.75V88H45.25V85ZM54.25 85H55.75V88H54.25V85ZM63.25 85H64.75V88H63.25V85ZM72.25 85H73.75V88H72.25V85ZM81.25 85H82.75V88H81.25V85ZM90.25 85H91.75V88H90.25V85ZM99.25 85H100.75V88H99.25V85ZM108.25 85H109.75V88H108.25V85ZM16 81.25V82.75H13.75V81.25H16ZM25 81.25V82.75H22V81.25H25ZM34 81.25V82.75H31V81.25H34ZM43 81.25V82.75H40V81.25H43ZM52 81.25V82.75H49V81.25H52ZM61 81.25V82.75H58V81.25H61ZM70 81.25V82.75H67V81.25H70ZM79 81.25V82.75H76V81.25H79ZM88 81.25V82.75H85V81.25H88ZM97 81.25V82.75H94V81.25H97ZM106 81.25V82.75H103V81.25H106ZM114.25 81.25V82.75H112V81.25H114.25ZM18.25 76H19.75V79H18.25V76ZM27.25 76H28.75V79H27.25V76ZM36.25 76H37.75V79H36.25V76ZM45.25 76H46.75V79H45.25V76ZM54.25 76H55.75V79H54.25V76ZM63.25 76H64.75V79H63.25V76ZM72.25 76H73.75V79H72.25V76ZM81.25 76H82.75V79H81.25V76ZM90.25 76H91.75V79H90.25V76ZM99.25 76H100.75V79H99.25V76ZM108.25 76H109.75V79H108.25V76ZM16 72.25V73.75H13.75V72.25H16ZM25 72.25V73.75H22V72.25H25ZM34 72.25V73.75H31V72.25H34ZM43 72.25V73.75H40V72.25H43ZM52 72.25V73.75H49V72.25H52ZM61 72.25V73.75H58V72.25H61ZM70 72.25V73.75H67V72.25H70ZM79 72.25V73.75H76V72.25H79ZM88 72.25V73.75H85V72.25H88ZM97 72.25V73.75H94V72.25H97ZM106 72.25V73.75H103V72.25H106ZM114.25 72.25V73.75H112V72.25H114.25ZM18.25 67H19.75V70H18.25V67ZM27.25 67H28.75V70H27.25V67ZM36.25 67H37.75V70H36.25V67ZM45.25 67H46.75V70H45.25V67ZM54.25 67H55.75V70H54.25V67ZM63.25 67H64.75V70H63.25V67ZM72.25 67H73.75V70H72.25V67ZM81.25 67H82.75V70H81.25V67ZM90.25 67H91.75V70H90.25V67ZM99.25 67H100.75V70H99.25V67ZM108.25 67H109.75V70H108.25V67ZM16 63.25V64.75H13.75V63.25H16ZM25 63.25V64.75H22V63.25H25ZM34 63.25V64.75H31V63.25H34ZM43 63.25V64.75H40V63.25H43ZM52 63.25V64.75H49V63.25H52ZM61 63.25V64.75H58V63.25H61ZM70 63.25V64.75H67V63.25H70ZM79 63.25V64.75H76V63.25H79ZM88 63.25V64.75H85V63.25H88ZM97 63.25V64.75H94V63.25H97ZM106 63.25V64.75H103V63.25H106ZM114.25 63.25V64.75H112V63.25H114.25ZM18.25 58H19.75V61H18.25V58ZM27.25 58H28.75V61H27.25V58ZM36.25 58H37.75V61H36.25V58ZM45.25 58H46.75V61H45.25V58ZM54.25 58H55.75V61H54.25V58ZM63.25 58H64.75V61H63.25V58ZM72.25 58H73.75V61H72.25V58ZM81.25 58H82.75V61H81.25V58ZM90.25 58H91.75V61H90.25V58ZM99.25 58H100.75V61H99.25V58ZM108.25 58H109.75V61H108.25V58ZM16 54.25V55.75H13.75V54.25H16ZM25 54.25V55.75H22V54.25H25ZM34 54.25V55.75H31V54.25H34ZM43 54.25V55.75H40V54.25H43ZM52 54.25V55.75H49V54.25H52ZM61 54.25V55.75H58V54.25H61ZM70 54.25V55.75H67V54.25H70ZM79 54.25V55.75H76V54.25H79ZM88 54.25V55.75H85V54.25H88ZM97 54.25V55.75H94V54.25H97ZM106 54.25V55.75H103V54.25H106ZM114.25 54.25V55.75H112V54.25H114.25ZM18.25 49H19.75V52H18.25V49ZM27.25 49H28.75V52H27.25V49ZM36.25 49H37.75V52H36.25V49ZM45.25 49H46.75V52H45.25V49ZM54.25 49H55.75V52H54.25V49ZM63.25 49H64.75V52H63.25V49ZM72.25 49H73.75V52H72.25V49ZM81.25 49H82.75V52H81.25V49ZM90.25 49H91.75V52H90.25V49ZM99.25 49H100.75V52H99.25V49ZM108.25 49H109.75V52H108.25V49ZM16 45.25V46.75H13.75V45.25H16ZM25 45.25V46.75H22V45.25H25ZM34 45.25V46.75H31V45.25H34ZM43 45.25V46.75H40V45.25H43ZM52 45.25V46.75H49V45.25H52ZM61 45.25V46.75H58V45.25H61ZM70 45.25V46.75H67V45.25H70ZM79 45.25V46.75H76V45.25H79ZM88 45.25V46.75H85V45.25H88ZM97 45.25V46.75H94V45.25H97ZM106 45.25V46.75H103V45.25H106ZM114.25 45.25V46.75H112V45.25H114.25ZM18.25 40H19.75V43H18.25V40ZM27.25 40H28.75V43H27.25V40ZM36.25 40H37.75V43H36.25V40ZM45.25 40H46.75V43H45.25V40ZM54.25 40H55.75V43H54.25V40ZM63.25 40H64.75V43H63.25V40ZM72.25 40H73.75V43H72.25V40ZM81.25 40H82.75V43H81.25V40ZM90.25 40H91.75V43H90.25V40ZM99.25 40H100.75V43H99.25V40ZM108.25 40H109.75V43H108.25V40ZM16 36.25V37.75H13.75V36.25H16ZM25 36.25V37.75H22V36.25H25ZM34 36.25V37.75H31V36.25H34ZM43 36.25V37.75H40V36.25H43ZM52 36.25V37.75H49V36.25H52ZM61 36.25V37.75H58V36.25H61ZM70 36.25V37.75H67V36.25H70ZM79 36.25V37.75H76V36.25H79ZM88 36.25V37.75H85V36.25H88ZM97 36.25V37.75H94V36.25H97ZM106 36.25V37.75H103V36.25H106ZM114.25 36.25V37.75H112V36.25H114.25ZM18.25 31H19.75V34H18.25V31ZM27.25 31H28.75V34H27.25V31ZM36.25 31H37.75V34H36.25V31ZM45.25 31H46.75V34H45.25V31ZM54.25 31H55.75V34H54.25V31ZM63.25 31H64.75V34H63.25V31ZM72.25 31H73.75V34H72.25V31ZM81.25 31H82.75V34H81.25V31ZM90.25 31H91.75V34H90.25V31ZM99.25 31H100.75V34H99.25V31ZM108.25 31H109.75V34H108.25V31ZM16 27.25V28.75H13.75V27.25H16ZM25 27.25V28.75H22V27.25H25ZM34 27.25V28.75H31V27.25H34ZM43 27.25V28.75H40V27.25H43ZM52 27.25V28.75H49V27.25H52ZM61 27.25V28.75H58V27.25H61ZM70 27.25V28.75H67V27.25H70ZM79 27.25V28.75H76V27.25H79ZM88 27.25V28.75H85V27.25H88ZM97 27.25V28.75H94V27.25H97ZM106 27.25V28.75H103V27.25H106ZM114.25 27.25V28.75H112V27.25H114.25ZM18.25 22H19.75V25H18.25V22ZM27.25 22H28.75V25H27.25V22ZM36.25 22H37.75V25H36.25V22ZM45.25 22H46.75V25H45.25V22ZM54.25 22H55.75V25H54.25V22ZM63.25 22H64.75V25H63.25V22ZM72.25 22H73.75V25H72.25V22ZM81.25 22H82.75V25H81.25V22ZM90.25 22H91.75V25H90.25V22ZM99.25 22H100.75V25H99.25V22ZM108.25 22H109.75V25H108.25V22ZM16 18.25V19.75H13.75V18.25H16ZM25 18.25V19.75H22V18.25H25ZM34 18.25V19.75H31V18.25H34ZM43 18.25V19.75H40V18.25H43ZM52 18.25V19.75H49V18.25H52ZM61 18.25V19.75H58V18.25H61ZM70 18.25V19.75H67V18.25H70ZM79 18.25V19.75H76V18.25H79ZM88 18.25V19.75H85V18.25H88ZM97 18.25V19.75H94V18.25H97ZM106 18.25V19.75H103V18.25H106ZM114.25 18.25V19.75H112V18.25H114.25ZM18.25 13.75H19.75V16H18.25V13.75ZM27.25 13.75H28.75V16H27.25V13.75ZM36.25 13.75H37.75V16H36.25V13.75ZM45.25 13.75H46.75V16H45.25V13.75ZM54.25 13.75H55.75V16H54.25V13.75ZM63.25 13.75H64.75V16H63.25V13.75ZM72.25 13.75H73.75V16H72.25V13.75ZM81.25 13.75H82.75V16H81.25V13.75ZM90.25 13.75H91.75V16H90.25V13.75ZM99.25 13.75H100.75V16H99.25V13.75ZM108.25 13.75H109.75V16H108.25V13.75Z" fill="#B8D9FF" fill-opacity="0.32"/>
<path d="M8.5 8.5H11.5V11.5H8.5V8.5Z" fill="#B8D9FF" fill-opacity="0.72"/>
<path d="M8.5 116.5H11.5V119.5H8.5V116.5Z" fill="#B8D9FF" fill-opacity="0.72"/>
<path d="M17.5 8.5H20.5V11.5H17.5V8.5Z" fill="#B8D9FF" fill-opacity="0.72"/>
<path d="M17.5 116.5H20.5V119.5H17.5V116.5Z" fill="#B8D9FF" fill-opacity="0.72"/>
<path d="M26.5 8.5H29.5V11.5H26.5V8.5Z" fill="#B8D9FF" fill-opacity="0.72"/>
<path d="M26.5 116.5H29.5V119.5H26.5V116.5Z" fill="#B8D9FF" fill-opacity="0.72"/>
<path d="M35.5 8.5H38.5V11.5H35.5V8.5Z" fill="#B8D9FF" fill-opacity="0.72"/>
<path d="M35.5 116.5H38.5V119.5H35.5V116.5Z" fill="#B8D9FF" fill-opacity="0.72"/>
<path d="M44.5 8.5H47.5V11.5H44.5V8.5Z" fill="#B8D9FF" fill-opacity="0.72"/>
<path d="M44.5 116.5H47.5V119.5H44.5V116.5Z" fill="#B8D9FF" fill-opacity="0.72"/>
<path d="M53.5 8.5H56.5V11.5H53.5V8.5Z" fill="#B8D9FF" fill-opacity="0.72"/>
<path d="M53.5 116.5H56.5V119.5H53.5V116.5Z" fill="#B8D9FF" fill-opacity="0.72"/>
<path d="M62.5 8.5H65.5V11.5H62.5V8.5Z" fill="#B8D9FF" fill-opacity="0.72"/>
<path d="M62.5 116.5H65.5V119.5H62.5V116.5Z" fill="#B8D9FF" fill-opacity="0.72"/>
<path d="M71.5 8.5H74.5V11.5H71.5V8.5Z" fill="#B8D9FF" fill-opacity="0.72"/>
<path d="M71.5 116.5H74.5V119.5H71.5V116.5Z" fill="#B8D9FF" fill-opacity="0.72"/>
<path d="M80.5 8.5H83.5V11.5H80.5V8.5Z" fill="#B8D9FF" fill-opacity="0.72"/>
<path d="M80.5 116.5H83.5V119.5H80.5V116.5Z" fill="#B8D9FF" fill-opacity="0.72"/>
<path d="M89.5 8.5H92.5V11.5H89.5V8.5Z" fill="#B8D9FF" fill-opacity="0.72"/>
<path d="M89.5 116.5H92.5V119.5H89.5V116.5Z" fill="#B8D9FF" fill-opacity="0.72"/>
<path d="M98.5 8.5H101.5V11.5H98.5V8.5Z" fill="#B8D9FF" fill-opacity="0.72"/>
<path d="M98.5 116.5H101.5V119.5H98.5V116.5Z" fill="#B8D9FF" fill-opacity="0.72"/>
<path d="M107.5 8.5H110.5V11.5H107.5V8.5Z" fill="#B8D9FF" fill-opacity="0.72"/>
<path d="M107.5 116.5H110.5V119.5H107.5V116.5Z" fill="#B8D9FF" fill-opacity="0.72"/>
<path d="M116.5 8.5H119.5V11.5H116.5V8.5Z" fill="#B8D9FF" fill-opacity="0.72"/>
<path d="M116.5 116.5H119.5V119.5H116.5V116.5Z" fill="#B8D9FF" fill-opacity="0.72"/>
<path d="M8.5 119.5V116.5H11.5V119.5H8.5Z" fill="#B8D9FF" fill-opacity="0.72"/>
<path d="M116.5 119.5V116.5H119.5V119.5H116.5Z" fill="#B8D9FF" fill-opacity="0.72"/>
<path d="M8.5 110.5L8.5 107.5H11.5V110.5H8.5Z" fill="#B8D9FF" fill-opacity="0.72"/>
<path d="M116.5 110.5V107.5H119.5V110.5H116.5Z" fill="#B8D9FF" fill-opacity="0.72"/>
<path d="M8.5 101.5L8.5 98.5H11.5V101.5H8.5Z" fill="#B8D9FF" fill-opacity="0.72"/>
<path d="M116.5 101.5V98.5H119.5V101.5H116.5Z" fill="#B8D9FF" fill-opacity="0.72"/>
<path d="M8.5 92.5L8.5 89.5H11.5V92.5H8.5Z" fill="#B8D9FF" fill-opacity="0.72"/>
<path d="M116.5 92.5V89.5H119.5V92.5H116.5Z" fill="#B8D9FF" fill-opacity="0.72"/>
<path d="M8.5 83.5L8.5 80.5H11.5V83.5H8.5Z" fill="#B8D9FF" fill-opacity="0.72"/>
<path d="M116.5 83.5V80.5H119.5V83.5H116.5Z" fill="#B8D9FF" fill-opacity="0.72"/>
<path d="M8.5 74.5L8.5 71.5H11.5V74.5H8.5Z" fill="#B8D9FF" fill-opacity="0.72"/>
<path d="M116.5 74.5V71.5H119.5V74.5H116.5Z" fill="#B8D9FF" fill-opacity="0.72"/>
<path d="M8.5 65.5L8.5 62.5H11.5V65.5H8.5Z" fill="#B8D9FF" fill-opacity="0.72"/>
<path d="M116.5 65.5V62.5H119.5V65.5H116.5Z" fill="#B8D9FF" fill-opacity="0.72"/>
<path d="M8.5 56.5L8.5 53.5H11.5V56.5H8.5Z" fill="#B8D9FF" fill-opacity="0.72"/>
<path d="M116.5 56.5V53.5H119.5V56.5H116.5Z" fill="#B8D9FF" fill-opacity="0.72"/>
<path d="M8.5 47.5L8.5 44.5H11.5V47.5H8.5Z" fill="#B8D9FF" fill-opacity="0.72"/>
<path d="M116.5 47.5V44.5H119.5V47.5H116.5Z" fill="#B8D9FF" fill-opacity="0.72"/>
<path d="M8.5 38.5L8.5 35.5H11.5V38.5H8.5Z" fill="#B8D9FF" fill-opacity="0.72"/>
<path d="M116.5 38.5V35.5H119.5V38.5H116.5Z" fill="#B8D9FF" fill-opacity="0.72"/>
<path d="M8.5 29.5L8.5 26.5H11.5V29.5H8.5Z" fill="#B8D9FF" fill-opacity="0.72"/>
<path d="M116.5 29.5V26.5H119.5V29.5H116.5Z" fill="#B8D9FF" fill-opacity="0.72"/>
<path d="M8.5 20.5L8.5 17.5L11.5 17.5V20.5H8.5Z" fill="#B8D9FF" fill-opacity="0.72"/>
<path d="M116.5 20.5V17.5H119.5V20.5H116.5Z" fill="#B8D9FF" fill-opacity="0.72"/>
<path d="M8.5 11.5V8.5H11.5V11.5H8.5Z" fill="#B8D9FF" fill-opacity="0.72"/>
<path d="M116.5 11.5V8.5H119.5V11.5H116.5Z" fill="#B8D9FF" fill-opacity="0.72"/>
<path d="M104.714 108.322L112.964 118.75H92.125H61.5891H46.375L43.0124 112.906C41.3843 110.076 41.4162 106.586 43.0959 103.787L43.75 102.697L53.5 107.197L65.714 94.9828L70.1371 87.3218L75.464 92.6487L97.5692 98.5718L104.714 94.4468V108.322Z" fill="#0A1029"/>
<path d="M92.125 118.75H61.5891H46.375L43.0124 112.906C41.3843 110.076 41.4162 106.586 43.0959 103.787L43.75 102.697L53.5 107.197L65.714 94.9828L70.1371 87.3218L75.464 92.6487L97.5692 98.5718L104.714 94.4468V108.322L112.964 118.75H92.125ZM92.125 118.75C89.8103 114.774 87.2103 107.158 92.125 105.25C92.125 105.25 97.2564 107.565 100.375 109.072" stroke="#BAD61C" stroke-width="1.5" stroke-linecap="round" stroke-linejoin="round"/>
<path d="M68.8724 108.37L70.4396 109.844C70.7035 110.093 71.1072 110.117 71.3988 109.902L72.2385 109.282C72.4741 109.108 72.7893 109.087 73.0457 109.229L74.463 110.01C74.748 110.167 75.1018 110.122 75.3388 109.899L76.9641 108.37" stroke="#BAD61C" stroke-width="1.5"/>
<rect x="62.3391" y="106.75" width="3.375" height="3.375" fill="#BAD61C"/>
<rect x="83.3391" y="108.25" width="3.375" height="3.375" fill="#BAD61C"/>
<rect width="18" height="20" transform="translate(54 32)" fill="#0A1029"/>
<path d="M63.0039 49.24C61.9506 49.24 61.0172 48.9467 60.2039 48.36C59.4039 47.7733 58.7772 46.94 58.3239 45.86C57.8839 44.78 57.6639 43.4933 57.6639 42C57.6639 40.5067 57.8839 39.22 58.3239 38.14C58.7772 37.06 59.4039 36.2267 60.2039 35.64C61.0172 35.0533 61.9506 34.76 63.0039 34.76C64.0706 34.76 65.0039 35.0533 65.8039 35.64C66.6039 36.2267 67.2239 37.06 67.6639 38.14C68.1172 39.22 68.3439 40.5067 68.3439 42C68.3439 43.4933 68.1172 44.78 67.6639 45.86C67.2239 46.94 66.6039 47.7733 65.8039 48.36C65.0039 48.9467 64.0706 49.24 63.0039 49.24ZM59.3839 42C59.3839 42.9067 59.4772 43.7267 59.6639 44.46C59.8639 45.18 60.1372 45.7867 60.4839 46.28L64.3639 36.66C63.9506 36.4333 63.4972 36.32 63.0039 36.32C62.2972 36.32 61.6706 36.5533 61.1239 37.02C60.5772 37.4733 60.1506 38.1267 59.8439 38.98C59.5372 39.82 59.3839 40.8267 59.3839 42ZM63.0039 47.7C63.7106 47.7 64.3372 47.4733 64.8839 47.02C65.4306 46.5533 65.8572 45.8933 66.1639 45.04C66.4706 44.1867 66.6239 43.1733 66.6239 42C66.6239 41.0933 66.5239 40.28 66.3239 39.56C66.1372 38.8267 65.8706 38.2133 65.5239 37.72L61.6239 47.36C62.0506 47.5867 62.5106 47.7 63.0039 47.7Z" fill="#BAD61C"/>
<rect width="17" height="20" transform="translate(27 50)" fill="#0A1029"/>
<path d="M36.7239 67V63.76H30.0239V62.46L36.4039 53H38.4039V62.24H40.4039V63.76H38.4039V67H36.7239ZM31.9039 62.24H36.8039V54.96L31.9039 62.24Z" fill="#BAD61C"/>
<rect width="17" height="20" transform="translate(83 48)" fill="#0A1029"/>
<path d="M92.7239 65V61.76H86.0239V60.46L92.4039 51H94.4039V60.24H96.4039V61.76H94.4039V65H92.7239ZM87.9039 60.24H92.8039V52.96L87.9039 60.24Z" fill="#BAD61C"/>
</svg>
