<svg width="576" height="320" viewBox="0 0 576 320" fill="none" xmlns="http://www.w3.org/2000/svg">
<rect x="32" y="32" width="512" height="256" rx="2" fill="#02081D"/>
<path d="M257.497 272.054H257.498V273.001H258.446V274.501H255.998V274.5H255.05V273H255.997V272.053H257.497V272.054ZM266.029 274.501H262.634V273.001H266.029V274.501ZM273.612 274.501H270.217V273.001H273.612V274.501ZM281.196 274.501H277.8V273.001H281.196V274.501ZM288.779 274.501H285.384V273.001H288.779V274.501ZM296.363 274.501H292.967V273.001H296.363V274.501ZM302.999 273.001H303.947V274.501H300.551V273.001H301.498V272.054H302.999V273.001ZM311.53 274.501H308.135V273.001H311.53V274.501ZM319.113 274.501H315.718V273.001H319.113V274.501ZM326.697 274.501H323.301V273.001H326.697V274.501ZM334.28 274.501H330.885V273.001H334.28V274.501ZM341.864 274.501H338.468V273.001H341.864V274.501ZM348.499 273.001H349.446V274.501H346.052V273.001H346.998V272.054H348.499V273.001ZM357.029 274.501H353.634V273.001H357.029V274.501ZM364.612 274.501H361.217V273.001H364.612V274.501ZM372.196 274.501H368.8V273.001H372.196V274.501ZM379.779 274.501H376.384V273.001H379.779V274.501ZM387.363 274.501H383.967V273.001H387.363V274.501ZM394 273.001H394.948V274.501H391.551V273.001H392.498V272.054H394V273.001ZM402.531 274.501H399.136V273.001H402.531V274.501ZM410.114 274.501H406.719V273.001H410.114V274.501ZM417.698 274.501H414.302V273.001H417.698V274.501ZM425.281 274.501H421.886V273.001H425.281V274.501ZM432.865 274.501H429.469V273.001H432.865V274.501ZM439.5 273.001H440.448V274.501H437.053V273.001H438V272.054H439.5V273.001ZM448.031 274.501H444.636V273.001H448.031V274.501ZM455.614 274.501H452.219V273.001H455.614V274.501ZM463.198 274.501H459.802V273.001H463.198V274.501ZM470.781 274.501H467.386V273.001H470.781V274.501ZM478.365 274.501H474.969V273.001H478.365V274.501ZM485 272.054V273.001H485.948V274.501H482.553V273.001H483.5V272.054H485ZM493.531 274.501H490.136V273.001H493.531V274.501ZM501.114 274.501H497.719V273.001H501.114V274.501ZM508.698 274.501H505.302V273.001H508.698V274.501ZM516.281 274.501H512.886V273.001H516.281V274.501ZM523.865 274.501H520.469V273.001H523.865V274.501ZM530.5 274.501H528.053V273.001H529V272.054H530.5V274.501ZM211.997 273H212.945V274.5H210.497V272.053H211.997V273ZM220.528 274.5H217.133V273H220.528V274.5ZM228.111 274.5H224.716V273H228.111V274.5ZM235.695 274.5H232.299V273H235.695V274.5ZM243.278 274.5H239.883V273H243.278V274.5ZM250.862 274.5H247.466V273H250.862V274.5ZM257.497 264.47H257.498V267.866H255.998V267.865H255.997V264.469H257.497V264.47ZM302.999 267.866H301.498V264.47H302.999V267.866ZM348.499 267.866H346.998V264.47H348.499V267.866ZM394 267.866H392.498V264.47H394V267.866ZM439.5 267.866H438V264.47H439.5V267.866ZM485 267.866H483.5V264.47H485V267.866ZM530.5 267.866H529V264.47H530.5V267.866ZM211.997 267.865H210.497V264.469H211.997V267.865ZM257.497 256.887H257.498V260.282H255.998V260.281H255.997V256.886H257.497V256.887ZM302.999 260.282H301.498V256.887H302.999V260.282ZM348.499 260.282H346.998V256.887H348.499V260.282ZM394 260.282H392.498V256.887H394V260.282ZM439.5 260.282H438V256.887H439.5V260.282ZM485 260.282H483.5V256.887H485V260.282ZM530.5 260.282H529V256.887H530.5V260.282ZM211.997 260.281H210.497V256.886H211.997V260.281ZM257.497 249.304H257.498V252.699H255.998V252.698H255.997V249.303H257.497V249.304ZM302.999 252.699H301.498V249.304H302.999V252.699ZM348.499 252.699H346.998V249.304H348.499V252.699ZM394 252.699H392.498V249.304H394V252.699ZM439.5 252.699H438V249.304H439.5V252.699ZM485 252.699H483.5V249.304H485V252.699ZM530.5 252.699H529V249.304H530.5V252.699ZM211.997 252.698H210.497V249.303H211.997V252.698ZM257.497 241.72H257.498V245.115H255.998V245.114H255.997V241.719H257.497V241.72ZM302.999 245.115H301.498V241.72H302.999V245.115ZM348.499 245.115H346.998V241.72H348.499V245.115ZM394 245.115H392.498V241.72H394V245.115ZM439.5 245.115H438V241.72H439.5V245.115ZM485 245.115H483.5V241.72H485V245.115ZM530.5 245.115H529V241.72H530.5V245.115ZM211.997 245.114H210.497V241.719H211.997V245.114ZM257.497 234.137H257.498V237.532H255.998V237.531H255.997V234.136H257.497V234.137ZM302.999 237.532H301.498V234.137H302.999V237.532ZM348.499 237.532H346.998V234.137H348.499V237.532ZM394 237.532H392.498V234.137H394V237.532ZM439.5 237.532H438V234.137H439.5V237.532ZM485 237.532H483.5V234.137H485V237.532ZM530.5 237.532H529V234.137H530.5V237.532ZM211.997 237.531H210.497V234.136H211.997V237.531ZM257.498 227.501H258.446V229.001H257.498V229.949H255.998V229.948H255.997V229.001H255.05V227.5H255.997V226.554H257.498V227.501ZM302.999 227.501H303.947V229.001H302.999V229.949H301.498V229.001H300.551V227.501H301.498V226.554H302.999V227.501ZM348.499 227.501H349.446V229.001H348.499V229.949H346.998V229.001H346.052V227.501H346.998V226.554H348.499V227.501ZM394 227.501H394.948V229.001H394V229.949H392.498V229.001H391.551V227.501H392.498V226.554H394V227.501ZM439.5 227.501H440.448V229.001H439.5V229.949H438V229.001H437.053V227.501H438V226.554H439.5V227.501ZM485 227.501H485.948V229.001H485V229.949H483.5V229.001H482.553V227.501H483.5V226.554H485V227.501ZM530.5 229.949H529V229.001H528.053V227.501H529V226.554H530.5V229.949ZM211.997 227.5H212.945V229.001H211.997V229.948H210.497V226.554H211.997V227.5ZM220.528 229.001H217.133V227.5H220.528V229.001ZM228.111 229.001H224.716V227.5H228.111V229.001ZM235.695 229.001H232.299V227.5H235.695V229.001ZM243.278 229.001H239.883V227.5H243.278V229.001ZM250.862 229.001H247.466V227.5H250.862V229.001ZM266.029 229.001H262.634V227.501H266.029V229.001ZM273.612 229.001H270.217V227.501H273.612V229.001ZM281.196 229.001H277.8V227.501H281.196V229.001ZM288.779 229.001H285.384V227.501H288.779V229.001ZM296.363 229.001H292.967V227.501H296.363V229.001ZM311.53 229.001H308.135V227.501H311.53V229.001ZM319.113 229.001H315.718V227.501H319.113V229.001ZM326.697 229.001H323.301V227.501H326.697V229.001ZM334.28 229.001H330.885V227.501H334.28V229.001ZM341.864 229.001H338.468V227.501H341.864V229.001ZM357.029 229.001H353.634V227.501H357.029V229.001ZM364.612 229.001H361.217V227.501H364.612V229.001ZM372.196 229.001H368.8V227.501H372.196V229.001ZM379.779 229.001H376.384V227.501H379.779V229.001ZM387.363 229.001H383.967V227.501H387.363V229.001ZM402.531 229.001H399.136V227.501H402.531V229.001ZM410.114 229.001H406.719V227.501H410.114V229.001ZM417.698 229.001H414.302V227.501H417.698V229.001ZM425.281 229.001H421.886V227.501H425.281V229.001ZM432.865 229.001H429.469V227.501H432.865V229.001ZM448.031 229.001H444.636V227.501H448.031V229.001ZM455.614 229.001H452.219V227.501H455.614V229.001ZM463.198 229.001H459.802V227.501H463.198V229.001ZM470.781 229.001H467.386V227.501H470.781V229.001ZM478.365 229.001H474.969V227.501H478.365V229.001ZM493.531 229.001H490.136V227.501H493.531V229.001ZM501.114 229.001H497.719V227.501H501.114V229.001ZM508.698 229.001H505.302V227.501H508.698V229.001ZM516.281 229.001H512.886V227.501H516.281V229.001ZM523.865 229.001H520.469V227.501H523.865V229.001ZM211.997 222.366H210.497V218.97H211.997V222.366ZM257.498 222.366H255.997V218.97H257.498V222.366ZM302.999 222.366H301.498V218.97H302.999V222.366ZM348.499 222.366H346.998V218.97H348.499V222.366ZM394 222.366H392.498V218.97H394V222.366ZM439.5 222.366H438V218.97H439.5V222.366ZM485 222.366H483.5V218.97H485V222.366ZM530.5 222.366H529V218.97H530.5V222.366ZM211.997 214.782H210.497V211.387H211.997V214.782ZM257.498 214.782H255.997V211.387H257.498V214.782ZM302.999 214.782H301.498V211.387H302.999V214.782ZM348.499 214.782H346.998V211.387H348.499V214.782ZM394 214.782H392.498V211.387H394V214.782ZM439.5 214.782H438V211.387H439.5V214.782ZM485 214.782H483.5V211.387H485V214.782ZM530.5 214.782H529V211.387H530.5V214.782ZM211.997 207.199H210.497V203.804H211.997V207.199ZM257.498 207.199H255.997V203.804H257.498V207.199ZM302.999 207.199H301.498V203.804H302.999V207.199ZM348.499 207.199H346.998V203.804H348.499V207.199ZM394 207.199H392.498V203.804H394V207.199ZM439.5 207.199H438V203.804H439.5V207.199ZM485 207.199H483.5V203.804H485V207.199ZM530.5 207.199H529V203.804H530.5V207.199ZM211.997 199.615H210.497V196.22H211.997V199.615ZM257.498 199.615H255.997V196.22H257.498V199.615ZM302.999 199.615H301.498V196.22H302.999V199.615ZM348.499 199.615H346.998V196.22H348.499V199.615ZM394 199.615H392.498V196.22H394V199.615ZM439.5 199.615H438V196.22H439.5V199.615ZM485 199.615H483.5V196.22H485V199.615ZM530.5 199.615H529V196.22H530.5V199.615ZM211.997 192.032H210.497V188.637H211.997V192.032ZM257.498 192.032H255.997V188.637H257.498V192.032ZM302.999 192.032H301.498V188.637H302.999V192.032ZM348.499 192.032H346.998V188.637H348.499V192.032ZM394 192.032H392.498V188.637H394V192.032ZM439.5 192.032H438V188.637H439.5V192.032ZM485 192.032H483.5V188.637H485V192.032ZM530.5 192.032H529V188.637H530.5V192.032ZM211.997 182H212.945V183.501H211.997V184.449H210.497V181.053H211.997V182ZM257.498 182H258.446V183.501H257.498V184.449H255.997V183.501H255.05V182H255.997V181.053H257.498V182ZM302.999 182H303.947V183.501H302.999V184.449H301.498V183.501H300.551V182H301.498V181.053H302.999V182ZM348.499 182H349.446V183.501H348.499V184.449H346.998V183.501H346.052V182H346.998V181.053H348.499V182ZM394 182H394.948V183.501H394V184.449H392.498V183.501H391.551V182H392.498V181.053H394V182ZM439.5 182H440.448V183.501H439.5V184.449H438V183.501H437.053V182H438V181.053H439.5V182ZM485 182H485.948V183.501H485V184.449H483.5V183.501H482.553V182H483.5V181.053H485V182ZM530.5 184.449H529V183.501H528.053V182H529V181.053H530.5V184.449ZM220.528 183.501H217.133V182H220.528V183.501ZM228.111 183.501H224.716V182H228.111V183.501ZM235.695 183.501H232.299V182H235.695V183.501ZM243.278 183.501H239.883V182H243.278V183.501ZM250.862 183.501H247.466V182H250.862V183.501ZM266.029 183.501H262.634V182H266.029V183.501ZM273.612 183.501H270.217V182H273.612V183.501ZM281.196 183.501H277.8V182H281.196V183.501ZM288.779 183.501H285.384V182H288.779V183.501ZM296.363 183.501H292.967V182H296.363V183.501ZM311.53 183.501H308.135V182H311.53V183.501ZM319.113 183.501H315.718V182H319.113V183.501ZM326.697 183.501H323.301V182H326.697V183.501ZM334.28 183.501H330.885V182H334.28V183.501ZM341.864 183.501H338.468V182H341.864V183.501ZM357.029 183.501H353.634V182H357.029V183.501ZM364.612 183.501H361.217V182H364.612V183.501ZM372.196 183.501H368.8V182H372.196V183.501ZM379.779 183.501H376.384V182H379.779V183.501ZM387.363 183.501H383.967V182H387.363V183.501ZM402.531 183.501H399.136V182H402.531V183.501ZM410.114 183.501H406.719V182H410.114V183.501ZM417.698 183.501H414.302V182H417.698V183.501ZM425.281 183.501H421.886V182H425.281V183.501ZM432.865 183.501H429.469V182H432.865V183.501ZM448.031 183.501H444.636V182H448.031V183.501ZM455.614 183.501H452.219V182H455.614V183.501ZM463.198 183.501H459.802V182H463.198V183.501ZM470.781 183.501H467.386V182H470.781V183.501ZM478.365 183.501H474.969V182H478.365V183.501ZM493.531 183.501H490.136V182H493.531V183.501ZM501.114 183.501H497.719V182H501.114V183.501ZM508.698 183.501H505.302V182H508.698V183.501ZM516.281 183.501H512.886V182H516.281V183.501ZM523.865 183.501H520.469V182H523.865V183.501ZM211.997 176.865H210.497V173.469H211.997V176.865ZM257.498 176.865H255.997V173.469H257.498V176.865ZM302.999 176.865H301.498V173.469H302.999V176.865ZM348.499 176.865H346.998V173.469H348.499V176.865ZM394 176.865H392.498V173.469H394V176.865ZM439.5 176.865H438V173.469H439.5V176.865ZM485 176.865H483.5V173.469H485V176.865ZM530.5 176.865H529V173.469H530.5V176.865ZM211.997 169.281H210.497V165.886H211.997V169.281ZM257.498 169.281H255.997V165.886H257.498V169.281ZM302.999 169.281H301.498V165.886H302.999V169.281ZM348.499 169.281H346.998V165.886H348.499V169.281ZM394 169.281H392.498V165.886H394V169.281ZM439.5 169.281H438V165.886H439.5V169.281ZM485 169.281H483.5V165.886H485V169.281ZM530.5 169.281H529V165.886H530.5V169.281ZM211.997 161.698H210.497V158.303H211.997V161.698ZM257.498 161.698H255.997V158.303H257.498V161.698ZM302.999 161.698H301.498V158.303H302.999V161.698ZM348.499 161.698H346.998V158.303H348.499V161.698ZM394 161.698H392.498V158.303H394V161.698ZM439.5 161.698H438V158.303H439.5V161.698ZM485 161.698H483.5V158.303H485V161.698ZM530.5 161.698H529V158.303H530.5V161.698ZM211.997 154.114H210.497V150.719H211.997V154.114ZM257.498 154.114H255.997V150.719H257.498V154.114ZM302.999 154.114H301.498V150.719H302.999V154.114ZM348.499 154.114H346.998V150.719H348.499V154.114ZM394 154.114H392.498V150.719H394V154.114ZM439.5 154.114H438V150.719H439.5V154.114ZM485 154.114H483.5V150.719H485V154.114ZM530.5 154.114H529V150.719H530.5V154.114ZM211.997 146.531H210.497V143.136H211.997V146.531ZM257.498 146.531H255.997V143.136H257.498V146.531ZM302.999 146.531H301.498V143.136H302.999V146.531ZM348.499 146.531H346.998V143.136H348.499V146.531ZM394 146.531H392.498V143.136H394V146.531ZM439.5 146.531H438V143.136H439.5V146.531ZM485 146.531H483.5V143.136H485V146.531ZM530.5 146.531H529V143.136H530.5V146.531ZM211.997 136.5H212.945V138.001H211.997V138.948H210.497V135.554H211.997V136.5ZM257.498 136.5H258.446V138.001H257.498V138.948H255.997V138.001H255.05V136.5H255.997V135.554H257.498V136.5ZM302.999 136.5H303.947V138.001H302.999V138.948H301.498V138.001H300.551V136.5H301.498V135.554H302.999V136.5ZM348.499 136.5H349.446V138.001H348.499V138.948H346.998V138.001H346.052V136.5H346.998V135.554H348.499V136.5ZM394 136.5H394.948V138.001H394V138.948H392.498V138.001H391.551V136.5H392.498V135.554H394V136.5ZM439.5 136.5H440.448V138.001H439.5V138.948H438V138.001H437.053V136.5H438V135.554H439.5V136.5ZM485 136.5H485.948V138.001H485V138.948H483.5V138.001H482.553V136.5H483.5V135.554H485V136.5ZM530.5 138.948H529V138.001H528.053V136.5H529V135.554H530.5V138.948ZM220.528 138.001H217.133V136.5H220.528V138.001ZM228.111 138.001H224.716V136.5H228.111V138.001ZM235.695 138.001H232.299V136.5H235.695V138.001ZM243.278 138.001H239.883V136.5H243.278V138.001ZM250.862 138.001H247.466V136.5H250.862V138.001ZM266.029 138.001H262.634V136.5H266.029V138.001ZM273.612 138.001H270.217V136.5H273.612V138.001ZM281.196 138.001H277.8V136.5H281.196V138.001ZM288.779 138.001H285.384V136.5H288.779V138.001ZM296.363 138.001H292.967V136.5H296.363V138.001ZM311.53 138.001H308.135V136.5H311.53V138.001ZM319.113 138.001H315.718V136.5H319.113V138.001ZM326.697 138.001H323.301V136.5H326.697V138.001ZM334.28 138.001H330.885V136.5H334.28V138.001ZM341.864 138.001H338.468V136.5H341.864V138.001ZM357.029 138.001H353.634V136.5H357.029V138.001ZM364.612 138.001H361.217V136.5H364.612V138.001ZM372.196 138.001H368.8V136.5H372.196V138.001ZM379.779 138.001H376.384V136.5H379.779V138.001ZM387.363 138.001H383.967V136.5H387.363V138.001ZM402.531 138.001H399.136V136.5H402.531V138.001ZM410.114 138.001H406.719V136.5H410.114V138.001ZM417.698 138.001H414.302V136.5H417.698V138.001ZM425.281 138.001H421.886V136.5H425.281V138.001ZM432.865 138.001H429.469V136.5H432.865V138.001ZM448.031 138.001H444.636V136.5H448.031V138.001ZM455.614 138.001H452.219V136.5H455.614V138.001ZM463.198 138.001H459.802V136.5H463.198V138.001ZM470.781 138.001H467.386V136.5H470.781V138.001ZM478.365 138.001H474.969V136.5H478.365V138.001ZM493.531 138.001H490.136V136.5H493.531V138.001ZM501.114 138.001H497.719V136.5H501.114V138.001ZM508.698 138.001H505.302V136.5H508.698V138.001ZM516.281 138.001H512.886V136.5H516.281V138.001ZM523.865 138.001H520.469V136.5H523.865V138.001ZM211.997 131.366H210.497V127.97H211.997V131.366ZM257.498 131.366H255.997V127.97H257.498V131.366ZM302.999 131.366H301.498V127.97H302.999V131.366ZM348.499 131.366H346.998V127.97H348.499V131.366ZM394 131.366H392.498V127.97H394V131.366ZM439.5 131.366H438V127.97H439.5V131.366ZM485 131.366H483.5V127.97H485V131.366ZM530.5 131.366H529V127.97H530.5V131.366ZM211.997 123.782H210.497V120.387H211.997V123.782ZM257.498 123.782H255.997V120.387H257.498V123.782ZM302.999 123.782H301.498V120.387H302.999V123.782ZM348.499 123.782H346.998V120.387H348.499V123.782ZM394 123.782H392.498V120.387H394V123.782ZM439.5 123.782H438V120.387H439.5V123.782ZM485 123.782H483.5V120.387H485V123.782ZM530.5 123.782H529V120.387H530.5V123.782ZM211.997 116.199H210.497V112.804H211.997V116.199ZM257.498 116.199H255.997V112.804H257.498V116.199ZM302.999 116.199H301.498V112.804H302.999V116.199ZM348.499 116.199H346.998V112.804H348.499V116.199ZM394 116.199H392.498V112.804H394V116.199ZM439.5 116.199H438V112.804H439.5V116.199ZM485 116.199H483.5V112.804H485V116.199ZM530.5 116.199H529V112.804H530.5V116.199ZM211.997 108.615H210.497V105.22H211.997V108.615ZM257.498 108.615H255.997V105.22H257.498V108.615ZM302.999 108.615H301.498V105.22H302.999V108.615ZM348.499 108.615H346.998V105.22H348.499V108.615ZM394 108.615H392.498V105.22H394V108.615ZM439.5 108.615H438V105.22H439.5V108.615ZM485 108.615H483.5V105.22H485V108.615ZM530.5 108.615H529V105.22H530.5V108.615ZM211.997 101.032H210.497V97.6367H211.997V101.032ZM257.498 101.032H255.997V97.6367H257.498V101.032ZM302.999 101.032H301.498V97.6367H302.999V101.032ZM348.499 101.032H346.998V97.6367H348.499V101.032ZM394 101.032H392.498V97.6367H394V101.032ZM439.5 101.032H438V97.6367H439.5V101.032ZM485 101.032H483.5V97.6367H485V101.032ZM530.5 101.032H529V97.6367H530.5V101.032ZM211.997 90.999H212.945V92.501H211.997V93.4492H210.497V90.0518H211.997V90.999ZM257.497 90.0527H257.498V91H258.446V92.501H257.498V93.4492H255.997V92.501H255.05V90.999H255.997V90.0518H257.497V90.0527ZM302.999 91H303.947V92.501H302.999V93.4492H301.498V92.501H300.551V91H301.498V90.0527H302.999V91ZM348.499 91H349.446V92.501H348.499V93.4492H346.998V92.501H346.052V91H346.998V90.0527H348.499V91ZM394 91H394.948V92.501H394V93.4492H392.498V92.501H391.551V91H392.498V90.0527H394V91ZM439.5 91H440.448V92.501H439.5V93.4492H438V92.501H437.053V91H438V90.0527H439.5V91ZM485 91H485.948V92.501H485V93.4492H483.5V92.501H482.553V91H483.5V90.0527H485V91ZM530.5 93.4492H529V92.501H528.053V91H529V90.0527H530.5V93.4492ZM220.528 92.501H217.133V90.999H220.528V92.501ZM228.111 92.501H224.716V90.999H228.111V92.501ZM235.695 92.501H232.299V90.999H235.695V92.501ZM243.278 92.501H239.883V90.999H243.278V92.501ZM250.862 92.501H247.466V90.999H250.862V92.501ZM266.029 92.501H262.634V91H266.029V92.501ZM273.612 92.501H270.217V91H273.612V92.501ZM281.196 92.501H277.8V91H281.196V92.501ZM288.779 92.501H285.384V91H288.779V92.501ZM296.363 92.501H292.967V91H296.363V92.501ZM311.53 92.501H308.135V91H311.53V92.501ZM319.113 92.501H315.718V91H319.113V92.501ZM326.697 92.501H323.301V91H326.697V92.501ZM334.28 92.501H330.885V91H334.28V92.501ZM341.864 92.501H338.468V91H341.864V92.501ZM357.029 92.501H353.634V91H357.029V92.501ZM364.612 92.501H361.217V91H364.612V92.501ZM372.196 92.501H368.8V91H372.196V92.501ZM379.779 92.501H376.384V91H379.779V92.501ZM387.363 92.501H383.967V91H387.363V92.501ZM402.531 92.501H399.136V91H402.531V92.501ZM410.114 92.501H406.719V91H410.114V92.501ZM417.698 92.501H414.302V91H417.698V92.501ZM425.281 92.501H421.886V91H425.281V92.501ZM432.865 92.501H429.469V91H432.865V92.501ZM448.031 92.501H444.636V91H448.031V92.501ZM455.614 92.501H452.219V91H455.614V92.501ZM463.198 92.501H459.802V91H463.198V92.501ZM470.781 92.501H467.386V91H470.781V92.501ZM478.365 92.501H474.969V91H478.365V92.501ZM493.531 92.501H490.136V91H493.531V92.501ZM501.114 92.501H497.719V91H501.114V92.501ZM508.698 92.501H505.302V91H508.698V92.501ZM516.281 92.501H512.886V91H516.281V92.501ZM523.865 92.501H520.469V91H523.865V92.501ZM257.497 82.4688H257.498V85.8652H255.998V85.8643H255.997V82.4678H257.497V82.4688ZM302.999 85.8652H301.498V82.4688H302.999V85.8652ZM348.499 85.8652H346.998V82.4688H348.499V85.8652ZM394 85.8652H392.498V82.4688H394V85.8652ZM439.5 85.8652H438V82.4688H439.5V85.8652ZM485 85.8652H483.5V82.4688H485V85.8652ZM530.5 85.8652H529V82.4688H530.5V85.8652ZM211.997 85.8643H210.497V82.4678H211.997V85.8643ZM257.497 74.8857H257.498V78.2812H255.998V78.2803H255.997V74.8848H257.497V74.8857ZM302.999 78.2812H301.498V74.8857H302.999V78.2812ZM348.499 78.2812H346.998V74.8857H348.499V78.2812ZM394 78.2812H392.498V74.8857H394V78.2812ZM439.5 78.2812H438V74.8857H439.5V78.2812ZM485 78.2812H483.5V74.8857H485V78.2812ZM530.5 78.2812H529V74.8857H530.5V78.2812ZM211.997 78.2803H210.497V74.8848H211.997V78.2803ZM257.497 67.3027H257.498V70.6982H255.998V70.6973H255.997V67.3018H257.497V67.3027ZM302.999 70.6982H301.498V67.3027H302.999V70.6982ZM348.499 70.6982H346.998V67.3027H348.499V70.6982ZM394 70.6982H392.498V67.3027H394V70.6982ZM439.5 70.6982H438V67.3027H439.5V70.6982ZM485 70.6982H483.5V67.3027H485V70.6982ZM530.5 70.6982H529V67.3027H530.5V70.6982ZM211.997 70.6973H210.497V67.3018H211.997V70.6973ZM257.497 59.7188H257.498V63.1143H255.998V63.1133H255.997V59.7178H257.497V59.7188ZM302.999 63.1143H301.498V59.7188H302.999V63.1143ZM348.499 63.1143H346.998V59.7188H348.499V63.1143ZM394 63.1143H392.498V59.7188H394V63.1143ZM439.5 63.1143H438V59.7188H439.5V63.1143ZM485 63.1143H483.5V59.7188H485V63.1143ZM530.5 63.1143H529V59.7188H530.5V63.1143ZM211.997 63.1133H210.497V59.7178H211.997V63.1133ZM257.497 52.1357H257.498V55.5312H255.998V55.5303H255.997V52.1348H257.497V52.1357ZM302.999 55.5312H301.498V52.1357H302.999V55.5312ZM348.499 55.5312H346.998V52.1357H348.499V55.5312ZM394 55.5312H392.498V52.1357H394V55.5312ZM439.5 55.5312H438V52.1357H439.5V55.5312ZM485 55.5312H483.5V52.1357H485V55.5312ZM530.5 55.5312H529V52.1357H530.5V55.5312ZM211.997 55.5303H210.497V52.1348H211.997V55.5303ZM257.497 45.5H258.446V47H257.498V47.9482H255.998V47.9473H255.997V46.999H255.05V45.499H257.497V45.5ZM303.947 47H302.999V47.9482H301.498V47H300.551V45.5H303.947V47ZM349.446 47H348.499V47.9482H346.998V47H346.052V45.5H349.446V47ZM394.948 47H394V47.9482H392.498V47H391.551V45.5H394.948V47ZM440.448 47H439.5V47.9482H438V47H437.053V45.5H440.448V47ZM485.948 47H485V47.9482H483.5V47H482.553V45.5H485.948V47ZM530.5 47.9482H529V47H528.053V45.5H530.5V47.9482ZM212.945 46.999H211.997V47.9473H210.497V45.499H212.945V46.999ZM266.029 47H262.634V45.5H266.029V47ZM273.612 47H270.217V45.5H273.612V47ZM281.196 47H277.8V45.5H281.196V47ZM288.779 47H285.384V45.5H288.779V47ZM296.363 47H292.967V45.5H296.363V47ZM311.53 47H308.135V45.5H311.53V47ZM319.113 47H315.718V45.5H319.113V47ZM326.697 47H323.301V45.5H326.697V47ZM334.28 47H330.885V45.5H334.28V47ZM341.864 47H338.468V45.5H341.864V47ZM357.029 47H353.634V45.5H357.029V47ZM364.612 47H361.217V45.5H364.612V47ZM372.196 47H368.8V45.5H372.196V47ZM379.779 47H376.384V45.5H379.779V47ZM387.363 47H383.967V45.5H387.363V47ZM402.531 47H399.136V45.5H402.531V47ZM410.114 47H406.719V45.5H410.114V47ZM417.698 47H414.302V45.5H417.698V47ZM425.281 47H421.886V45.5H425.281V47ZM432.865 47H429.469V45.5H432.865V47ZM448.031 47H444.636V45.5H448.031V47ZM455.614 47H452.219V45.5H455.614V47ZM463.198 47H459.802V45.5H463.198V47ZM470.781 47H467.386V45.5H470.781V47ZM478.365 47H474.969V45.5H478.365V47ZM493.531 47H490.136V45.5H493.531V47ZM501.114 47H497.719V45.5H501.114V47ZM508.698 47H505.302V45.5H508.698V47ZM516.281 47H512.886V45.5H516.281V47ZM523.865 47H520.469V45.5H523.865V47ZM220.528 46.999H217.133V45.499H220.528V46.999ZM228.111 46.999H224.716V45.499H228.111V46.999ZM235.695 46.999H232.299V45.499H235.695V46.999ZM243.278 46.999H239.883V45.499H243.278V46.999ZM250.862 46.999H247.466V45.499H250.862V46.999Z" fill="#B8D9FF" fill-opacity="0.32"/>
<g clip-path="url(#clip0_2054_2857)">
<path d="M323.201 207.348L323.208 207.358L322.209 209.771C321.25 209.157 320.521 208.244 320.134 207.174L322.712 206.737L322.716 206.742C322.794 206.728 322.875 206.735 322.95 206.763C323.024 206.79 323.09 206.838 323.139 206.9C323.189 206.962 323.221 207.037 323.232 207.116C323.242 207.195 323.231 207.275 323.2 207.348H323.201ZM322.368 205.219C322.445 205.198 322.514 205.157 322.57 205.099C322.625 205.042 322.663 204.97 322.681 204.893C322.699 204.815 322.695 204.734 322.67 204.659C322.646 204.583 322.601 204.515 322.541 204.463L322.543 204.452L320.582 202.698C319.984 203.672 319.727 204.817 319.852 205.953L322.366 205.228L322.368 205.219ZM323.513 203.239C323.577 203.286 323.653 203.315 323.733 203.322C323.812 203.329 323.892 203.314 323.964 203.28C324.035 203.245 324.096 203.192 324.14 203.125C324.184 203.059 324.209 202.982 324.212 202.902L324.222 202.897L324.372 200.277C323.236 200.41 322.177 200.917 321.362 201.719L323.509 203.242L323.513 203.239ZM324.273 205.989L324.996 206.338L325.718 205.991L325.898 205.211L325.398 204.588H324.594L324.094 205.211L324.273 205.989ZM325.773 202.894C325.776 202.974 325.801 203.051 325.845 203.117C325.889 203.184 325.95 203.237 326.022 203.272C326.094 203.306 326.174 203.321 326.254 203.313C326.333 203.306 326.409 203.277 326.473 203.23L326.481 203.233L328.615 201.72C327.803 200.924 326.751 200.418 325.623 200.278L325.771 202.893L325.773 202.894ZM336.649 208.864L330.876 216.045C330.726 216.231 330.536 216.381 330.32 216.484C330.104 216.586 329.867 216.64 329.628 216.639L320.367 216.642C320.128 216.642 319.892 216.589 319.676 216.486C319.46 216.382 319.27 216.232 319.12 216.046L313.344 208.866C313.195 208.68 313.091 208.463 313.038 208.231C312.984 207.999 312.984 207.758 313.037 207.526L315.097 198.571C315.205 198.101 315.522 197.707 315.96 197.498L324.302 193.511C324.518 193.408 324.755 193.354 324.995 193.354C325.234 193.354 325.471 193.408 325.687 193.511L334.032 197.496C334.47 197.705 334.787 198.1 334.895 198.569L336.957 207.524C337.065 207.994 336.952 208.487 336.649 208.864ZM333.36 206.807C333.318 206.797 333.257 206.781 333.215 206.773C333.041 206.74 332.9 206.748 332.736 206.735C332.386 206.698 332.098 206.668 331.841 206.587C331.736 206.547 331.661 206.422 331.625 206.371L331.424 206.312C331.531 205.535 331.496 204.744 331.319 203.98C331.142 203.208 330.825 202.475 330.383 201.817C330.435 201.77 330.533 201.684 330.56 201.658C330.568 201.568 330.561 201.475 330.654 201.376C330.851 201.191 331.098 201.038 331.397 200.854C331.539 200.77 331.67 200.717 331.812 200.612C331.844 200.588 331.888 200.55 331.922 200.523C332.162 200.332 332.217 200.003 332.045 199.787C331.873 199.571 331.539 199.551 331.3 199.742C331.266 199.769 331.22 199.804 331.189 199.83C331.055 199.946 330.972 200.06 330.859 200.18C330.613 200.43 330.409 200.638 330.186 200.789C330.089 200.845 329.947 200.826 329.883 200.822L329.693 200.957C328.599 199.809 327.126 199.097 325.547 198.954L325.535 198.731C325.47 198.669 325.392 198.616 325.372 198.481C325.35 198.213 325.387 197.924 325.429 197.576C325.452 197.413 325.49 197.278 325.497 197.101C325.498 197.061 325.496 197.002 325.496 196.959C325.496 196.653 325.272 196.404 324.996 196.404C324.721 196.404 324.497 196.653 324.497 196.959L324.498 196.973C324.498 197.014 324.496 197.065 324.498 197.101C324.504 197.278 324.542 197.413 324.565 197.576C324.607 197.924 324.643 198.213 324.621 198.482C324.593 198.582 324.537 198.671 324.459 198.74L324.447 198.951C322.858 199.079 321.373 199.793 320.281 200.954C320.221 200.912 320.161 200.869 320.101 200.826C320.011 200.838 319.921 200.866 319.804 200.797C319.581 200.647 319.377 200.439 319.131 200.189C319.018 200.069 318.936 199.955 318.802 199.84C318.772 199.814 318.725 199.778 318.691 199.752C318.592 199.672 318.47 199.626 318.343 199.62C318.268 199.616 318.192 199.63 318.123 199.66C318.054 199.691 317.993 199.737 317.945 199.796C317.773 200.012 317.828 200.342 318.068 200.533L318.075 200.538L318.179 200.621C318.321 200.726 318.451 200.78 318.593 200.863C318.892 201.048 319.139 201.201 319.336 201.385C319.412 201.467 319.426 201.611 319.436 201.673L319.596 201.816C318.712 203.141 318.349 204.746 318.576 206.322L318.368 206.382C318.313 206.454 318.235 206.566 318.153 206.599C317.896 206.68 317.607 206.709 317.258 206.746C317.094 206.76 316.953 206.752 316.778 206.785C316.741 206.792 316.688 206.805 316.645 206.815L316.641 206.817L316.634 206.819C316.339 206.89 316.15 207.161 316.211 207.427C316.272 207.694 316.56 207.856 316.856 207.792L316.863 207.791L316.873 207.788L317.002 207.759C317.172 207.713 317.296 207.646 317.45 207.587C317.78 207.469 318.054 207.37 318.32 207.331C318.432 207.322 318.55 207.4 318.608 207.432L318.825 207.395C319.314 208.905 320.338 210.184 321.705 210.991L321.615 211.209C321.648 211.293 321.684 211.408 321.659 211.491C321.562 211.743 321.396 212.008 321.207 212.304C321.116 212.44 321.022 212.546 320.939 212.703C320.919 212.74 320.894 212.798 320.875 212.837C320.747 213.112 320.841 213.428 321.088 213.547C321.336 213.667 321.644 213.54 321.778 213.265V213.263C321.798 213.224 321.824 213.173 321.84 213.136C321.91 212.974 321.934 212.835 321.984 212.678C322.116 212.346 322.189 211.998 322.371 211.781C322.421 211.721 322.501 211.699 322.586 211.676L322.699 211.471C324.182 212.042 325.823 212.046 327.308 211.483L327.414 211.675C327.5 211.703 327.594 211.717 327.67 211.83C327.806 212.062 327.899 212.337 328.012 212.67C328.062 212.826 328.086 212.965 328.157 213.127C328.173 213.164 328.2 213.217 328.219 213.256C328.352 213.532 328.661 213.658 328.909 213.538C329.156 213.42 329.25 213.103 329.122 212.828C329.102 212.789 329.077 212.732 329.057 212.694C328.974 212.538 328.88 212.433 328.789 212.296C328.599 212 328.443 211.755 328.346 211.503C328.306 211.373 328.353 211.293 328.384 211.209C328.366 211.187 328.325 211.065 328.301 211.007C329.673 210.194 330.698 208.905 331.181 207.385C331.245 207.395 331.357 207.415 331.394 207.423C331.469 207.373 331.538 207.309 331.674 207.319C331.94 207.358 332.214 207.457 332.544 207.575C332.698 207.635 332.821 207.703 332.992 207.748C333.028 207.758 333.08 207.767 333.122 207.776L333.131 207.779L333.138 207.78C333.435 207.844 333.722 207.682 333.783 207.415C333.843 207.149 333.655 206.878 333.36 206.807ZM329.397 202.699L327.447 204.445V204.45C327.387 204.502 327.342 204.57 327.317 204.646C327.292 204.722 327.289 204.803 327.306 204.88C327.324 204.958 327.363 205.03 327.418 205.087C327.473 205.145 327.543 205.186 327.62 205.207L327.623 205.217L330.149 205.945C330.204 205.385 330.167 204.819 330.041 204.271C329.914 203.715 329.696 203.184 329.397 202.698V202.699ZM325.384 208.024C325.345 207.951 325.287 207.891 325.216 207.85C325.144 207.809 325.062 207.789 324.98 207.792C324.903 207.795 324.828 207.818 324.763 207.859C324.698 207.9 324.644 207.957 324.608 208.025H324.606L323.338 210.317C324.416 210.685 325.585 210.686 326.664 210.32L325.394 208.024H325.384ZM327.272 206.731C327.181 206.714 327.086 206.727 327.002 206.767C326.899 206.816 326.82 206.903 326.78 207.01C326.74 207.116 326.743 207.234 326.788 207.339L326.785 207.343L327.795 209.781C328.76 209.165 329.492 208.245 329.876 207.166L327.276 206.726L327.272 206.731Z" fill="#B8D9FF" fill-opacity="0.72"/>
</g>
<g clip-path="url(#clip1_2054_2857)">
<path d="M236.98 114.076H239.099C239.148 114.076 239.195 114.057 239.23 114.022C239.265 113.987 239.285 113.94 239.285 113.891V112.004C239.285 111.955 239.265 111.907 239.231 111.872C239.196 111.838 239.148 111.818 239.099 111.818H236.98C236.931 111.818 236.884 111.837 236.849 111.872C236.815 111.907 236.795 111.954 236.795 112.003V113.891C236.795 113.993 236.878 114.076 236.98 114.076ZM234.026 108.646H236.144C236.193 108.646 236.241 108.626 236.276 108.591C236.31 108.557 236.33 108.509 236.33 108.46V106.572C236.33 106.523 236.31 106.476 236.275 106.441C236.24 106.406 236.193 106.387 236.144 106.387H234.026C233.977 106.387 233.93 106.406 233.895 106.441C233.861 106.476 233.841 106.523 233.841 106.572V108.46C233.841 108.562 233.923 108.646 234.026 108.646ZM234.026 111.361H236.144C236.193 111.361 236.24 111.341 236.275 111.306C236.31 111.271 236.33 111.224 236.33 111.175V109.288C236.33 109.239 236.31 109.192 236.275 109.157C236.24 109.122 236.193 109.103 236.144 109.103H234.026C233.977 109.103 233.93 109.122 233.895 109.157C233.861 109.192 233.841 109.239 233.841 109.288V111.175C233.841 111.277 233.923 111.36 234.026 111.361ZM231.096 111.361H233.216C233.265 111.36 233.312 111.341 233.346 111.306C233.381 111.271 233.4 111.224 233.4 111.175V109.288C233.4 109.239 233.381 109.192 233.346 109.157C233.311 109.122 233.264 109.103 233.215 109.103H231.097C231.048 109.103 231.001 109.122 230.966 109.157C230.932 109.192 230.912 109.239 230.912 109.288V111.175C230.912 111.277 230.995 111.36 231.097 111.361M228.133 111.361H230.252C230.301 111.361 230.348 111.341 230.383 111.306C230.418 111.271 230.437 111.224 230.437 111.175V109.288C230.437 109.239 230.418 109.192 230.383 109.157C230.348 109.122 230.301 109.103 230.252 109.103H228.133C228.084 109.103 228.037 109.122 228.002 109.157C227.967 109.192 227.947 109.239 227.947 109.288V111.175C227.947 111.277 228.031 111.36 228.133 111.361ZM234.026 114.076H236.144C236.193 114.076 236.24 114.057 236.275 114.022C236.31 113.987 236.33 113.94 236.33 113.891V112.004C236.33 111.955 236.31 111.907 236.276 111.872C236.241 111.838 236.193 111.818 236.144 111.818H234.026C233.977 111.818 233.93 111.837 233.895 111.872C233.861 111.907 233.841 111.954 233.841 112.003V113.891C233.841 113.993 233.923 114.076 234.026 114.076ZM231.096 114.076H233.216C233.265 114.076 233.312 114.056 233.346 114.021C233.381 113.987 233.4 113.94 233.4 113.891V112.004C233.4 111.98 233.396 111.956 233.386 111.933C233.377 111.911 233.364 111.89 233.347 111.873C233.33 111.856 233.309 111.842 233.287 111.832C233.264 111.823 233.24 111.818 233.216 111.818H231.096C231.047 111.818 231 111.838 230.966 111.873C230.931 111.907 230.912 111.954 230.912 112.003V113.891C230.912 113.993 230.995 114.076 231.097 114.076M228.133 114.076H230.252C230.301 114.076 230.348 114.056 230.383 114.022C230.418 113.987 230.437 113.94 230.437 113.891V112.004C230.437 111.98 230.433 111.956 230.423 111.933C230.414 111.911 230.401 111.89 230.384 111.873C230.367 111.856 230.346 111.842 230.324 111.832C230.301 111.823 230.277 111.818 230.253 111.818H228.133C228.084 111.818 228.036 111.838 228.002 111.872C227.967 111.907 227.947 111.955 227.947 112.004V113.891C227.947 113.993 228.031 114.076 228.133 114.076ZM225.213 114.076H227.333C227.382 114.076 227.429 114.056 227.463 114.021C227.498 113.987 227.517 113.94 227.517 113.891V112.004C227.517 111.98 227.513 111.956 227.503 111.933C227.494 111.911 227.481 111.89 227.464 111.873C227.447 111.856 227.426 111.842 227.404 111.832C227.381 111.823 227.357 111.818 227.333 111.818H225.213C225.164 111.818 225.117 111.838 225.083 111.873C225.048 111.907 225.029 111.954 225.029 112.003V113.891C225.029 113.993 225.11 114.076 225.213 114.076ZM246.76 112.888C246.695 112.837 246.088 112.378 244.806 112.378C244.468 112.379 244.13 112.408 243.796 112.465C243.548 110.765 242.143 109.935 242.08 109.899L241.736 109.7L241.51 110.027C241.226 110.465 241.02 110.949 240.898 111.457C240.668 112.427 240.808 113.339 241.301 114.118C240.706 114.45 239.751 114.531 239.557 114.538H223.748C223.55 114.538 223.359 114.617 223.219 114.757C223.078 114.897 222.999 115.087 222.998 115.286C222.98 116.671 223.214 118.047 223.69 119.348C224.235 120.776 225.045 121.828 226.1 122.472C227.28 123.195 229.2 123.609 231.375 123.609C232.358 123.612 233.338 123.523 234.305 123.343C235.648 123.096 236.94 122.627 238.128 121.954C239.108 121.387 239.988 120.666 240.738 119.818C241.99 118.4 242.736 116.821 243.291 115.418H243.512C244.884 115.418 245.727 114.869 246.192 114.409C246.501 114.116 246.742 113.759 246.899 113.363L246.997 113.075L246.76 112.888Z" fill="#B8D9FF" fill-opacity="0.72"/>
</g>
<g clip-path="url(#clip2_2054_2857)">
<path d="M424.409 205.008L414.804 211.998L417.245 205.475C417.299 205.315 417.325 205.168 417.325 205.008H414.564L410.749 215.213C410.549 215.76 410.723 216.387 411.189 216.747C411.43 216.934 411.71 217.014 411.99 217.014C412.27 217.014 412.537 216.934 412.777 216.76L427.45 206.089C427.81 205.822 427.997 205.422 427.997 205.008H424.395H424.409Z" fill="#B8D9FF" fill-opacity="0.72"/>
<path d="M427.743 205.796C427.731 205.811 427.717 205.825 427.705 205.84C427.728 205.811 427.75 205.782 427.771 205.752C427.761 205.766 427.753 205.782 427.743 205.796ZM411.203 193.27C411.669 192.91 412.323 192.91 412.79 193.257L427.45 203.928C427.811 204.193 427.996 204.597 427.995 205.008H424.409L424.407 205.01L414.818 198.032L417.245 204.542C417.344 204.813 417.35 205.093 417.281 205.351C417.31 205.237 417.326 205.126 417.326 205.008H414.564L414.564 205.01L410.762 194.803C410.562 194.257 410.736 193.63 411.203 193.27Z" fill="#B8D9FF" fill-opacity="0.72"/>
<path d="M407.908 205.008L404.08 215.213C403.826 215.906 404.173 216.667 404.867 216.934C405.027 216.987 405.174 217.014 405.334 217.014C405.867 217.014 406.388 216.68 406.588 216.147L410.589 205.475C410.643 205.315 410.669 205.155 410.669 205.008H407.908Z" fill="#B8D9FF" fill-opacity="0.72"/>
<path d="M404.88 193.083C405.573 192.83 406.334 193.177 406.601 193.87L410.589 204.542C410.687 204.811 410.694 205.089 410.626 205.346C410.655 205.23 410.67 205.116 410.67 205.008H407.908L407.907 205.011L404.093 194.804C403.84 194.111 404.186 193.35 404.88 193.083Z" fill="#B8D9FF" fill-opacity="0.72"/>
</g>
<g clip-path="url(#clip3_2054_2857)">
<path d="M233.997 238.998C227.367 238.998 221.997 244.504 221.997 251.302C221.997 256.746 225.432 261.344 230.202 262.975C230.802 263.082 231.027 262.713 231.027 262.39C231.027 262.098 231.012 261.129 231.012 260.099C227.997 260.668 227.217 259.345 226.977 258.653C226.842 258.299 226.257 257.207 225.747 256.915C225.327 256.684 224.727 256.115 225.732 256.1C226.677 256.085 227.352 256.992 227.577 257.361C228.657 259.222 230.382 258.699 231.072 258.376C231.177 257.576 231.492 257.038 231.837 256.73C229.167 256.423 226.377 255.362 226.377 250.656C226.377 249.318 226.842 248.21 227.607 247.349C227.487 247.041 227.067 245.78 227.727 244.089C227.727 244.089 228.732 243.766 231.027 245.35C231.987 245.073 233.007 244.935 234.027 244.935C235.047 244.935 236.067 245.073 237.027 245.35C239.322 243.75 240.327 244.089 240.327 244.089C240.987 245.78 240.567 247.041 240.447 247.349C241.212 248.21 241.677 249.302 241.677 250.656C241.677 255.377 238.872 256.423 236.202 256.73C236.637 257.115 237.012 257.853 237.012 259.007C237.012 260.652 236.997 261.975 236.997 262.39C236.997 262.713 237.222 263.098 237.822 262.975C240.204 262.15 242.274 260.58 243.741 258.486C245.207 256.392 245.996 253.88 245.997 251.302C245.997 244.504 240.627 238.998 233.997 238.998Z" fill="#B8D9FF" fill-opacity="0.32"/>
</g>
<path fill-rule="evenodd" clip-rule="evenodd" d="M381.739 117.896C379.885 121.911 375.823 124.698 371.11 124.698C366.397 124.698 362.334 121.911 360.481 117.896H381.739ZM371.11 101.298C377.572 101.298 382.81 106.536 382.81 112.998C382.81 114.302 382.597 115.556 382.203 116.727H360.017C359.914 116.421 359.824 116.109 359.746 115.793H376.06C376.998 115.838 377.922 115.286 378.328 114.439C378.759 113.467 378.567 112.271 377.855 111.483L377.854 111.482C375.491 108.461 373.7 107.299 370.583 107.318H360.879C362.877 103.728 366.71 101.298 371.11 101.298ZM377.333 113.747C377.315 113.816 377.293 113.883 377.266 113.949C377.047 114.38 376.567 114.654 376.085 114.624H359.524C359.484 114.335 359.455 114.043 359.436 113.747H377.333ZM370.568 108.487C373.521 108.533 374.63 109.368 376.956 112.231C377.053 112.336 377.135 112.453 377.201 112.578H359.417C359.433 112.145 359.471 111.718 359.532 111.299V111.409H368.883V110.24H359.737C359.883 109.636 360.075 109.05 360.311 108.487H370.568Z" fill="#B8D9FF" fill-opacity="0.72"/>
<g clip-path="url(#clip4_2054_2857)">
<path d="M499.046 71.934C499.046 73.3244 497.923 74.4482 496.532 74.4482C495.142 74.4482 494.018 73.3244 494.018 71.934C494.018 70.5435 495.142 69.4197 496.532 69.4197H499.046V71.934ZM500.304 71.934C500.304 70.5435 501.427 69.4197 502.818 69.4197C504.208 69.4197 505.332 70.5435 505.332 71.934V78.2197C505.332 79.6102 504.208 80.734 502.818 80.734C501.427 80.734 500.304 79.6102 500.304 78.2197V71.934Z" fill="#B8D9FF" fill-opacity="0.32"/>
<path d="M502.818 61.8386C501.427 61.8386 500.303 60.7148 500.303 59.3243C500.303 57.9339 501.427 56.8101 502.818 56.8101C504.208 56.8101 505.332 57.9339 505.332 59.3243V61.8386H502.818ZM502.818 63.1148C504.208 63.1148 505.332 64.2386 505.332 65.6291C505.332 67.0196 504.208 68.1434 502.818 68.1434H496.513C495.122 68.1434 493.999 67.0196 493.999 65.6291C493.999 64.2386 495.122 63.1148 496.513 63.1148H502.818Z" fill="#B8D9FF" fill-opacity="0.32"/>
<path d="M512.894 65.6291C512.894 64.2386 514.018 63.1148 515.408 63.1148C516.799 63.1148 517.922 64.2386 517.922 65.6291C517.922 67.0196 516.799 68.1434 515.408 68.1434H512.894V65.6291ZM511.637 65.6291C511.637 67.0196 510.513 68.1434 509.122 68.1434C507.732 68.1434 506.608 67.0196 506.608 65.6291V59.3243C506.608 57.9339 507.732 56.8101 509.122 56.8101C510.513 56.8101 511.637 57.9339 511.637 59.3243V65.6291Z" fill="#B8D9FF" fill-opacity="0.32"/>
<path d="M509.122 75.7054C510.513 75.7054 511.637 76.8292 511.637 78.2197C511.637 79.6102 510.513 80.734 509.122 80.734C507.732 80.734 506.608 79.6102 506.608 78.2197V75.7054H509.122ZM509.122 74.4482C507.732 74.4482 506.608 73.3244 506.608 71.934C506.608 70.5435 507.732 69.4197 509.122 69.4197H515.427C516.818 69.4197 517.941 70.5435 517.941 71.934C517.941 73.3244 516.818 74.4482 515.427 74.4482H509.122Z" fill="#B8D9FF" fill-opacity="0.32"/>
</g>
<g clip-path="url(#clip5_2054_2857)">
<path fill-rule="evenodd" clip-rule="evenodd" d="M477.805 252.406H473.506C473.608 253.435 474.36 253.766 475.213 253.766C476.088 253.766 476.792 253.568 477.373 253.259V255.03C476.635 255.454 475.791 255.658 474.941 255.616C472.802 255.616 471.298 254.283 471.298 251.627C471.298 249.392 472.573 247.616 474.658 247.616C476.749 247.616 477.837 249.366 477.837 251.616C477.837 251.83 477.816 252.288 477.805 252.406ZM474.648 249.408C474.098 249.408 473.49 249.798 473.49 250.784H475.757C475.757 249.798 475.186 249.408 474.648 249.408ZM467.837 255.616C467.069 255.616 466.6 255.296 466.29 255.062L466.28 257.531L464.082 257.995V247.76H466.088L466.13 248.304C466.596 247.863 467.212 247.617 467.853 247.616C469.4 247.616 470.85 249.003 470.85 251.563C470.85 254.352 469.41 255.616 467.837 255.616ZM467.33 249.563C466.824 249.563 466.509 249.744 466.28 249.995L466.29 253.259C466.504 253.494 466.813 253.675 467.33 253.675C468.141 253.675 468.685 252.795 468.685 251.611C468.685 250.464 468.13 249.563 467.33 249.563ZM461.058 247.76H463.261V255.462H461.058V247.76ZM461.058 245.254L463.261 244.79V246.582L461.058 247.051V245.259V245.254ZM458.754 250.24V255.462H456.557V247.76H458.53L458.594 248.411C459.128 247.467 460.232 247.659 460.525 247.76V249.782C460.248 249.691 459.304 249.552 458.754 250.24ZM454.194 252.758C454.194 254.054 455.581 253.654 455.858 253.536V255.328C455.565 255.488 455.037 255.616 454.317 255.616C454.017 255.625 453.718 255.573 453.439 255.462C453.16 255.352 452.906 255.186 452.693 254.974C452.48 254.763 452.312 254.51 452.2 254.232C452.088 253.953 452.033 253.655 452.04 253.355L452.045 246.331L454.189 245.872V247.76H455.864V249.643H454.194V252.763V252.758ZM451.576 253.131C451.576 254.715 450.344 255.616 448.52 255.616C447.701 255.616 446.892 255.447 446.141 255.12V253.024C446.877 253.424 447.794 253.723 448.52 253.723C449.01 253.723 449.336 253.595 449.336 253.19C449.336 252.134 445.997 252.528 445.997 250.096C445.997 248.544 447.213 247.616 448.994 247.616C449.72 247.616 450.445 247.723 451.176 248.016V250.086C450.501 249.73 449.752 249.537 448.989 249.52C448.53 249.52 448.221 249.654 448.221 250C448.221 250.987 451.576 250.518 451.576 253.136V253.131Z" fill="#B8D9FF" fill-opacity="0.32"/>
</g>
<path d="M280.997 56.998C287.625 56.998 292.997 62.3706 292.997 68.998C292.997 75.6255 287.625 80.998 280.997 80.998C274.37 80.998 268.997 75.6255 268.997 68.998C268.997 62.3706 274.37 56.998 280.997 56.998ZM277.303 67.8254C276.284 67.8254 275.538 68.6266 275.538 69.6924C275.538 70.7581 276.285 71.5586 277.303 71.5586C278.321 71.5584 279.067 70.7579 279.067 69.6924C279.067 68.6266 278.321 67.8256 277.303 67.8254ZM282.978 67.8928H282.184V68.4766H282.978V70.405C282.978 71.1991 283.44 71.5586 284.105 71.5586C284.323 71.5586 284.506 71.5247 284.716 71.4297V70.8254C284.574 70.8933 284.431 70.9207 284.268 70.9207C283.902 70.9205 283.665 70.7442 283.665 70.249V68.4766H284.751V67.8928H283.665V66.8272H282.978V67.8928ZM286.833 67.8254C285.842 67.8254 285.115 68.606 285.115 69.6718C285.116 70.8055 285.815 71.5586 286.854 71.5586C287.702 71.5585 288.32 71.077 288.496 70.2761H287.817C287.702 70.7444 287.349 71.0224 286.84 71.0224C286.235 71.0224 285.869 70.5947 285.814 69.8616H288.496C288.618 68.6941 287.905 67.8256 286.833 67.8254ZM271.612 66.6169V71.4912H272.359V69.7942H273.302C274.395 69.7942 275.101 69.2167 275.101 68.1916C275.101 67.1734 274.395 66.6169 273.302 66.6169H271.612ZM281.858 67.8452C281.267 67.8452 280.724 68.1577 280.473 68.653V67.8928H279.834V71.4912H280.52V69.6514C280.52 68.8571 281.084 68.5179 281.858 68.5586V67.8452ZM291.316 67.8452C290.726 67.8452 290.182 68.1576 289.931 68.653V67.8928H289.293V71.4912H289.979V69.6514C289.979 68.8571 290.542 68.5179 291.316 68.5586V67.8452ZM277.303 68.4363C277.893 68.4364 278.361 68.905 278.361 69.6924C278.361 70.4795 277.893 70.9549 277.303 70.9551C276.712 70.9551 276.25 70.4797 276.25 69.6924C276.25 68.9049 276.712 68.4363 277.303 68.4363ZM286.819 68.341C287.376 68.341 287.736 68.7415 287.77 69.4067H285.822C285.896 68.7348 286.269 68.3411 286.819 68.341ZM273.296 67.2483C273.954 67.2484 274.355 67.5943 274.355 68.1982C274.355 68.8024 273.954 69.1627 273.296 69.1628H272.359V67.2483H273.296Z" fill="#B8D9FF" fill-opacity="0.32"/>
<path d="M455.763 157.532C455.736 158.372 456.16 158.744 456.171 158.981C456.166 159.029 456.149 159.075 456.122 159.116C456.095 159.156 456.059 159.19 456.017 159.213L455.537 159.546C455.475 159.589 455.401 159.614 455.326 159.617C455.31 159.616 455.019 159.685 454.558 158.667C454.276 159.014 453.919 159.293 453.512 159.483C453.105 159.672 452.659 159.767 452.21 159.76C451.599 159.793 449.945 159.417 450.03 157.674C449.97 156.253 451.307 155.371 452.69 155.445C452.956 155.446 453.5 155.459 454.452 155.678V155.098C454.553 154.117 453.901 153.355 452.772 153.469C452.682 153.469 452.044 153.45 451.053 153.844C450.777 153.97 450.741 153.949 450.649 153.949C450.372 153.949 450.486 153.152 450.539 153.051C450.735 152.813 451.884 152.37 453.012 152.376C453.766 152.31 454.516 152.54 455.1 153.017C455.338 153.28 455.519 153.588 455.633 153.922C455.747 154.256 455.791 154.609 455.763 154.96L455.763 157.532ZM452.522 158.734C453.738 158.716 454.253 157.993 454.37 157.603C454.462 157.23 454.447 156.994 454.447 156.586C454.084 156.5 453.562 156.406 452.964 156.405C452.395 156.363 451.358 156.614 451.398 157.603C451.352 158.226 451.815 158.768 452.522 158.734ZM458.931 159.589C458.637 159.616 458.499 159.409 458.456 159.204L456.588 153.094C456.552 152.991 456.528 152.884 456.516 152.776C456.509 152.731 456.521 152.685 456.548 152.649C456.575 152.612 456.616 152.588 456.661 152.581C456.67 152.579 456.581 152.581 457.495 152.581C457.825 152.548 457.932 152.805 457.966 152.966L459.306 158.192L460.549 152.966C460.569 152.846 460.659 152.555 461.029 152.586H461.673C461.754 152.579 462.089 152.567 462.148 152.971L463.401 158.263L464.784 152.971C464.802 152.89 464.886 152.549 465.259 152.586H465.999C466.031 152.581 466.23 152.556 466.196 152.904C466.18 152.973 466.324 152.509 464.218 159.209C464.175 159.414 464.037 159.621 463.742 159.594H463.041C462.631 159.637 462.572 159.235 462.566 159.195L461.322 154.106L460.093 159.19C460.087 159.23 460.028 159.631 459.618 159.589H458.931V159.589ZM469.187 159.798C468.966 159.798 467.915 159.787 467.036 159.342C466.948 159.305 466.874 159.244 466.821 159.165C466.769 159.086 466.742 158.994 466.743 158.9V158.501C466.743 158.187 466.975 158.245 467.074 158.282C467.451 158.433 467.692 158.547 468.154 158.639C469.529 158.918 470.133 158.553 470.281 158.472C470.775 158.183 470.814 157.519 470.478 157.175C470.085 156.849 469.898 156.837 468.486 156.396C468.312 156.348 466.847 155.891 466.844 154.453C466.821 153.405 467.783 152.368 469.451 152.377C469.926 152.376 471.192 152.53 471.535 152.956C471.585 153.034 471.61 153.125 471.607 153.218V153.593C471.607 153.758 471.546 153.84 471.424 153.84C471.135 153.808 470.622 153.426 469.581 153.441C469.322 153.428 468.085 153.475 468.14 154.368C468.124 155.071 469.138 155.335 469.254 155.366C470.621 155.773 471.078 155.84 471.621 156.463C472.264 157.289 471.917 158.256 471.784 158.521C471.069 159.912 469.218 159.799 469.187 159.798ZM470.694 163.689C468.068 165.609 464.256 166.63 461.001 166.63C456.609 166.659 452.365 165.061 449.103 162.15C448.858 161.931 449.074 161.632 449.372 161.799C452.99 163.847 457.087 164.923 461.255 164.92C464.368 164.904 467.447 164.279 470.315 163.081C470.757 162.896 471.131 163.371 470.694 163.689ZM471.789 162.454C471.453 162.026 469.566 162.254 468.721 162.354C468.466 162.383 468.423 162.164 468.654 162.003C470.157 160.957 472.624 161.257 472.908 161.608C473.191 161.96 472.831 164.407 471.424 165.576C471.208 165.756 471.002 165.661 471.098 165.423C471.414 164.635 472.125 162.882 471.789 162.454Z" fill="#B8D9FF" fill-opacity="0.72"/>
<path d="M81.4118 158.351L85.1176 150.116L92.2049 157.203C93.1832 158.181 93.6724 158.67 93.8557 159.235C94.017 159.731 94.017 160.265 93.8557 160.761C93.6724 161.326 93.1832 161.815 92.2048 162.793L85.1176 169.88H79.3529L89.0308 159.458C89.3555 159.108 89.5179 158.933 89.5258 158.784C89.5326 158.655 89.478 158.53 89.3785 158.447C89.2639 158.351 89.0253 158.351 88.548 158.351H81.4118Z" fill="#B8D9FF"/>
<path d="M80.5882 161.645L76.8824 169.88L69.7951 162.793C68.8168 161.815 68.3276 161.326 68.1443 160.762C67.983 160.265 67.983 159.731 68.1443 159.235C68.3276 158.671 68.8168 158.181 69.7952 157.203L76.8824 150.116H82.6471L72.9692 160.538C72.6445 160.888 72.4821 161.063 72.4742 161.212C72.4674 161.341 72.522 161.466 72.6215 161.549C72.7361 161.645 72.9747 161.645 73.452 161.645H80.5882Z" fill="#B8D9FF"/>
<g clip-path="url(#clip6_2054_2857)">
<path d="M112 159.75H117" stroke="#9ECBFF" stroke-width="1.5"/>
<path d="M121 159.75H126" stroke="#9ECBFF" stroke-width="1.5"/>
<path d="M130 159.75H135" stroke="#9ECBFF" stroke-width="1.5"/>
<path d="M139 159.75H144" stroke="#9ECBFF" stroke-width="1.5"/>
</g>
<rect width="5" height="5" transform="matrix(1 0 0 -1 137 162.5)" fill="#9ECBFF"/>
<rect width="5" height="5" transform="matrix(1 0 0 -1 112 162.5)" fill="#9ECBFF"/>
<rect x="150.5" y="144" width="32" height="32" rx="16" stroke="#9ECBFF" stroke-width="1.5"/>
<path d="M166.5 149V156.333" stroke="#9ECBFF" stroke-width="1.5"/>
<path d="M174.277 152.221L169.092 157.406" stroke="#9ECBFF" stroke-width="1.5"/>
<path d="M177.5 160H170.167" stroke="#9ECBFF" stroke-width="1.5"/>
<path d="M174.279 167.777L169.094 162.592" stroke="#9ECBFF" stroke-width="1.5"/>
<path d="M166.5 171V163.667" stroke="#9ECBFF" stroke-width="1.5"/>
<path d="M158.723 167.779L163.908 162.594" stroke="#9ECBFF" stroke-width="1.5"/>
<path d="M155.5 160H162.833" stroke="#9ECBFF" stroke-width="1.5"/>
<path d="M158.721 152.223L163.906 157.408" stroke="#9ECBFF" stroke-width="1.5"/>
<g clip-path="url(#clip7_2054_2857)">
<path d="M192.5 159.75H197.5" stroke="#9ECBFF" stroke-width="1.5"/>
<path d="M201.5 159.75H206.5" stroke="#9ECBFF" stroke-width="1.5"/>
<path d="M210.5 159.75H215.5" stroke="#9ECBFF" stroke-width="1.5"/>
<path d="M219.5 159.75H224.5" stroke="#9ECBFF" stroke-width="1.5"/>
</g>
<rect width="5" height="5" transform="matrix(1 0 0 -1 217.5 162.5)" fill="#9ECBFF"/>
<rect width="5" height="5" transform="matrix(1 0 0 -1 192.5 162.5)" fill="#9ECBFF"/>
<defs>
<clipPath id="clip0_2054_2857">
<rect width="24" height="24" fill="white" transform="translate(312.997 192.998)"/>
</clipPath>
<clipPath id="clip1_2054_2857">
<rect width="24" height="24" fill="white" transform="translate(222.997 102.998)"/>
</clipPath>
<clipPath id="clip2_2054_2857">
<rect width="24" height="24" fill="white" transform="translate(403.997 192.998)"/>
</clipPath>
<clipPath id="clip3_2054_2857">
<rect width="24" height="24" fill="white" transform="translate(221.997 238.998)"/>
</clipPath>
<clipPath id="clip4_2054_2857">
<rect width="24" height="24" fill="white" transform="translate(493.997 56.998)"/>
</clipPath>
<clipPath id="clip5_2054_2857">
<rect width="32" height="13.3333" fill="white" transform="translate(445.997 244.79)"/>
</clipPath>
<clipPath id="clip6_2054_2857">
<rect width="29" height="1.5" fill="white" transform="matrix(1 0 0 -1 112 160.5)"/>
</clipPath>
<clipPath id="clip7_2054_2857">
<rect width="29" height="1.5" fill="white" transform="matrix(1 0 0 -1 192.5 160.5)"/>
</clipPath>
</defs>
</svg>
